<svg width="305" height="305" viewBox="0 0 305 305" fill="none" xmlns="http://www.w3.org/2000/svg">
<path d="M250.614 156.799C304.796 188.082 304.795 238.8 250.611 270.083C196.427 301.365 108.579 301.365 54.3968 270.083C0.214203 238.8 0.216034 188.081 54.3999 156.799C108.584 125.517 196.432 125.517 250.614 156.799Z" fill="#FAFAFA"/>
<path d="M172.411 283.16C157.956 283.16 146.237 276.394 146.237 268.048C146.237 259.701 157.956 252.936 172.411 252.936C186.867 252.936 198.586 259.701 198.586 268.048C198.586 276.394 186.867 283.16 172.411 283.16Z" fill="#E0E0E0"/>
<path d="M128.566 272.295C113.061 272.295 100.491 265.038 100.491 256.086C100.491 247.134 113.061 239.877 128.566 239.877C144.071 239.877 156.641 247.134 156.641 256.086C156.641 265.038 144.071 272.295 128.566 272.295Z" fill="#E0E0E0"/>
<path d="M259.616 249.075L265.301 252.357C265.252 249.252 265.459 243.372 267.106 235.728C270.876 218.209 278.526 215.165 282.253 208.345C286.169 201.172 281.136 196.871 276.391 197.609C272.151 198.262 265.435 203.478 262.074 214.244C257.639 228.439 258.731 242.603 259.616 249.075Z" fill="#BA68C8"/>
<path opacity="0.5" d="M259.616 249.075L265.301 252.357C265.252 249.252 265.459 243.372 267.106 235.728C270.876 218.209 278.526 215.165 282.253 208.345C286.169 201.172 281.136 196.871 276.391 197.609C272.151 198.262 265.435 203.478 262.074 214.244C257.639 228.439 258.731 242.603 259.616 249.075Z" fill="white"/>
<path d="M262.958 247.688C263.122 247.665 263.234 247.514 263.211 247.35C260.197 226.262 269.6 208.093 277.241 201.926C277.369 201.822 277.389 201.635 277.286 201.506C277.181 201.377 276.994 201.358 276.865 201.461C269.116 207.716 259.573 226.115 262.621 247.435C262.644 247.598 262.795 247.712 262.958 247.688Z" fill="white"/>
<path d="M262.462 250.72L265.299 252.355L265.762 252.624C266.696 248.384 269.191 243.962 273.918 239.222C279.463 233.665 287.192 228.474 285.825 223.807C284.465 219.141 278.225 220.373 273.918 223.136C269.874 225.735 261.261 235.318 262.462 250.72Z" fill="#BA68C8"/>
<path opacity="0.65" d="M262.462 250.72L265.299 252.355L265.762 252.624C266.696 248.384 269.191 243.962 273.918 239.222C279.463 233.665 287.192 228.474 285.825 223.807C284.465 219.141 278.225 220.373 273.918 223.136C269.874 225.735 261.261 235.318 262.462 250.72Z" fill="white"/>
<path d="M263.976 249.408C264.116 249.388 264.226 249.271 264.232 249.124C264.628 238.79 275.968 225.413 281.368 223.218C281.522 223.157 281.595 222.982 281.533 222.83C281.472 222.676 281.299 222.601 281.144 222.666C275.481 224.966 264.046 238.36 263.635 249.101C263.628 249.266 263.757 249.405 263.922 249.411C263.94 249.412 263.958 249.411 263.976 249.408Z" fill="white"/>
<path d="M241.408 280.673L192.186 205.931L225.387 186.762L274.609 261.504L241.408 280.673Z" fill="#BA68C8"/>
<path opacity="0.2" d="M241.408 280.673L192.186 205.931L225.387 186.762L274.609 261.504L241.408 280.673Z" fill="white"/>
<path d="M192.185 205.93L241.406 280.672L221.485 269.17L185.588 214.875L192.185 205.93Z" fill="#BA68C8"/>
<path opacity="0.2" d="M192.185 205.93L241.406 280.672L221.485 269.17L185.588 214.875L192.185 205.93Z" fill="black"/>
<path d="M102.859 43.8613L99.6062 58.4202L86.2357 66.2435L89.5632 51.5376L102.859 43.8613Z" fill="#BA68C8"/>
<path opacity="0.2" d="M102.859 43.8613L99.6062 58.4202L86.2357 66.2435L89.5632 51.5376L102.859 43.8613Z" fill="black"/>
<path d="M131.688 115.661L89.5676 51.5383L102.864 43.862L52.3094 29.5996L43.1009 78.3661L56.3659 70.7075L98.4864 134.831L131.688 115.661Z" fill="#BA68C8"/>
<path opacity="0.2" d="M131.688 115.661L89.5676 51.5383L102.864 43.862L52.3094 29.5996L43.1009 78.3661L56.3659 70.7075L98.4864 134.831L131.688 115.661Z" fill="white"/>
<path d="M56.3702 70.707L98.4688 134.83L91.0127 143.304L52.9914 85.4373L39.7611 93.08L43.1052 78.3656L56.3702 70.707Z" fill="#BA68C8"/>
<path opacity="0.2" d="M56.3702 70.707L98.4688 134.83L91.0127 143.304L52.9914 85.4373L39.7611 93.08L43.1052 78.3656L56.3702 70.707Z" fill="black"/>
<path d="M124.231 124.197L131.688 115.723L98.4644 134.829L91.0084 143.303L124.231 124.197Z" fill="#BA68C8"/>
<path opacity="0.4" d="M124.231 124.197L131.688 115.723L98.4644 134.829L91.0084 143.303L124.231 124.197Z" fill="black"/>
<path opacity="0.2" d="M52.9884 85.4373L56.3672 70.707L43.1021 78.3656L39.7581 93.08L52.9884 85.4373Z" fill="black"/>
<path d="M104.356 241.331C104.356 244.855 104.384 249.623 104.365 252.659C104.361 253.319 104.356 254.132 104.356 255.213C104.351 255.218 104.351 255.222 104.356 255.227C104.841 258.401 107.188 261.501 111.396 263.931C120.912 269.423 136.342 269.423 145.858 263.931C150.764 261.099 153.139 257.357 152.982 253.647V253.62C152.954 253.306 152.921 252.978 152.88 252.636C152.88 252.622 152.876 252.609 152.876 252.599C152.465 248.991 152.168 245.381 151.965 241.995C151.642 236.623 151.687 234.257 151.731 231.365C151.785 227.797 153.268 224.992 157.033 221.828C160.798 218.659 168.281 207.84 168.281 207.84L118.644 182.326L104.531 227.025C104.531 227.024 104.356 237.806 104.356 241.331Z" fill="#FFA8A7"/>
<path d="M118.259 173.076C118.259 173.076 119.196 176.836 123.632 171.862C128.067 166.888 135.324 159.285 142.97 151.97C146.635 148.464 161.322 136.65 171.176 127.722C174.315 124.484 178.776 122.216 181.842 124.572C184.907 126.929 184.917 132.717 182.985 135.587C181.276 138.127 177.614 141.653 174.817 144.186C174.835 144.339 174.852 144.49 174.87 144.644C175.399 149.259 176.344 154.451 176.793 160.048C177.06 163.38 181.078 167.582 181.024 171.005C179.842 175.866 173.383 181.115 168.816 184.763C164.248 188.41 162.259 189.895 162.311 191.046C162.39 192.811 169.787 186.392 173.078 184.133C172.895 194.608 179.588 195.869 179.588 195.869C178.583 197.886 172.875 202.327 164.761 212.715C161.558 216.815 128.959 189.831 128.959 189.831L121.219 184.861L115.771 175.849L118.259 173.076Z" fill="#FFA8A7"/>
<path d="M120.973 182.32C124.03 186.159 136.041 198.424 126.59 214.68C127.606 213.714 128.142 212.975 128.359 212.684C129.718 210.892 130.78 208.873 131.537 206.757C131.565 206.678 131.588 206.605 131.616 206.531C133.764 200.341 133.029 194.044 129.025 188.722C125.87 184.542 120.127 180.481 119.36 175.972C119.332 175.806 119.314 175.644 119.305 175.482C119.171 176.887 119.014 179.867 120.973 182.32Z" fill="#F28F8F"/>
<path opacity="0.5" d="M183.586 126.887C184.79 129.643 184.434 133.436 182.985 135.588C181.276 138.128 177.614 141.654 174.817 144.187C174.832 144.309 174.846 144.43 174.86 144.552C173.627 145.61 172.301 146.732 170.847 148.012C167.346 151.093 162.716 155.067 159.222 158.153C157.472 159.699 149.155 166.388 146.14 169.08C150.783 163.989 161.21 154.745 166.457 149.579C170.419 145.679 176.258 140.238 178.16 138.072C180.063 135.905 181.173 134.421 181.842 133.603C184.174 130.744 183.661 127.444 183.586 126.887Z" fill="#F28F8F"/>
<path d="M174.694 200.385C173.05 200.236 170.939 199.018 170.086 197.605C168.859 195.572 168.627 193.992 168.958 190.82C169.043 190.009 169.244 188.546 169.854 186.449C170.942 185.666 172.074 184.825 173.083 184.133C172.9 194.608 179.594 195.869 179.594 195.869C179.138 196.782 177.716 198.196 175.545 200.431C175.26 200.425 174.975 200.411 174.694 200.385Z" fill="#F28F8F"/>
<path d="M180.049 158.063C180.312 158.304 176.603 161.875 176.214 162.093C174.84 162.858 172.215 161.905 171.08 160.956C170.363 160.357 169.84 159.55 169.477 158.689C168.242 155.756 168.845 152.412 169.472 149.292C169.57 148.803 169.71 148.255 170.145 148.012C170.217 149.643 171.657 150.356 172.724 151.335C173.741 152.27 174.758 153.204 175.776 154.138C177.201 155.446 178.625 156.754 180.049 158.063Z" fill="#F28F8F"/>
<path d="M171.624 159.982L152.212 179.576L174.875 160.579L171.624 159.982Z" fill="#F28F8F"/>
<path d="M174.277 176.724C172.397 176.117 170.83 174.602 170.177 172.738C169.621 171.149 169.716 169.415 169.824 167.735C169.915 166.307 170.016 164.851 170.544 163.52L179.624 166.602C180.412 168.124 181.053 169.629 181.031 171.006C180.549 172.988 179.289 174.997 177.512 176.928C176.475 177.103 175.278 177.047 174.277 176.724Z" fill="#F28F8F"/>
<path d="M176.69 144.039C172.699 143.675 170.606 145.427 169.713 149.004C169.375 150.357 169.34 152.502 169.713 155.162C170.087 157.822 172.606 161.009 175.849 160.532C175.901 160.524 175.954 160.516 176.006 160.508C181.25 159.655 181.844 156.838 181.844 152.292C181.844 147.746 180.24 144.363 176.69 144.039Z" fill="#FFA8A7"/>
<path opacity="0.5" d="M171.976 145.096C171.686 145.346 169.994 147.003 169.979 151.591C169.963 156.606 172.479 157.646 175.256 158.093C178.033 158.539 181.779 156.811 181.779 154.299L181.781 154.299C181.541 157.673 180.426 159.791 176.003 160.509C175.95 160.518 175.897 160.526 175.845 160.534C172.602 161.011 170.083 157.823 169.709 155.164C169.336 152.504 169.371 150.358 169.709 149.005C170.148 147.25 170.878 145.938 171.976 145.096Z" fill="#F28F8F"/>
<path d="M176.597 160.025C172.952 159.693 171.039 161.292 170.223 164.56C169.915 165.797 169.882 167.756 170.223 170.186C170.564 172.616 172.866 175.527 175.829 175.091C175.876 175.084 175.924 175.077 175.972 175.069C180.762 174.291 181.305 171.718 181.305 167.564C181.305 163.411 179.839 160.321 176.597 160.025Z" fill="#FFA8A7"/>
<path opacity="0.5" d="M171.518 161.754C171.004 162.516 170.631 164.392 170.933 167.232C171.329 170.955 172.126 172.764 175.383 172.998C178.758 173.241 180.831 171.679 181.188 170.035C180.867 172.742 179.725 174.458 175.973 175.068C175.925 175.076 175.877 175.083 175.83 175.09C172.867 175.526 170.566 172.614 170.225 170.185C169.884 167.755 169.916 165.795 170.225 164.559C170.511 163.414 170.935 162.478 171.518 161.754Z" fill="#F28F8F"/>
<path d="M176.401 182.575C172.618 182.23 169.787 184.028 169.787 187.281V193.12C169.787 196.228 172.529 198.663 175.604 198.21C175.654 198.203 175.703 198.196 175.753 198.187C180.724 197.379 180.664 192.839 180.724 190.454C180.784 188.07 179.766 182.882 176.401 182.575Z" fill="#FFA8A7"/>
<path opacity="0.5" d="M171.633 183.615C169.981 185.345 170.624 188.865 170.752 192.336C170.84 194.745 172.094 196.741 175.386 196.741C178.678 196.741 180.153 194.729 180.6 192.76L180.602 192.755C180.329 195.03 179.379 197.599 175.757 198.188C175.707 198.195 175.657 198.203 175.608 198.211C172.533 198.663 169.791 196.228 169.791 193.12V187.282C169.791 185.677 170.482 184.429 171.633 183.615Z" fill="#F28F8F"/>
<path d="M218.336 181.427L136.967 119.734L103.744 138.903L185.134 200.596L218.336 181.427Z" fill="#BA68C8"/>
<path d="M103.742 138.902L96.2863 147.376L178.536 209.54L185.133 200.595L103.742 138.902Z" fill="#BA68C8"/>
<path opacity="0.2" d="M103.742 138.902L96.2863 147.376L178.536 209.54L185.133 200.595L103.742 138.902Z" fill="black"/>
<path d="M218.336 181.428L211.739 190.373L178.537 209.54L185.134 200.595L218.336 181.428Z" fill="#BA68C8"/>
<path opacity="0.4" d="M218.336 181.428L211.739 190.373L178.537 209.54L185.134 200.595L218.336 181.428Z" fill="black"/>
<path d="M104.533 227.024C104.533 218.373 103.902 206.765 102.471 196.757C101.04 186.749 101.317 178.183 101.755 175.763C102.193 173.343 102.316 169.826 106.051 165.362C107.811 163.258 111.671 160.191 114.89 156.41C118.138 152.596 121.169 148.361 122.887 146.045C124.605 143.729 128.871 147.457 128.664 154.842C128.495 160.874 124.372 166.153 122.779 168.409C120.836 171.161 119.456 173.819 119.301 175.479C119.169 176.884 119.011 179.86 120.971 182.321C124.027 186.159 136.04 198.424 126.586 214.681V229.595L104.533 227.024Z" fill="#FFA8A7"/>
<path d="M122.118 150.56C122.118 150.56 118.452 155.533 117.281 156.173C116.11 156.812 115.777 155.354 115.777 155.354L115.781 155.347C117.465 152.982 120.606 148.679 122.891 146.045C122.597 146.541 121.926 148.36 122.118 150.56Z" fill="#FFA8A7"/>
<path opacity="0.6" d="M122.118 150.56C122.118 150.56 118.453 155.535 117.281 156.173C116.185 156.769 115.777 155.354 115.777 155.354L115.781 155.347C117.465 152.982 120.606 148.679 122.891 146.045C122.597 146.541 121.926 148.36 122.118 150.56Z" fill="white"/>
<path d="M115.773 155.355L115.777 155.348C115.773 155.355 116.13 154.79 116.322 154.586C116.155 155.752 117 156.292 117 156.292C116.036 156.574 115.773 155.355 115.773 155.355Z" fill="#F28F8F"/>
<path d="M151.772 262.395C152.816 260.634 154.551 258.979 156.985 257.575C165.506 252.655 179.322 252.655 187.843 257.575C190.277 258.979 192.012 260.634 193.056 262.395H194.234V266.853H194.219C194.062 269.953 191.941 273.025 187.843 275.391C179.322 280.31 165.506 280.31 156.985 275.391C152.887 273.025 150.751 269.953 150.594 266.853V266.853V262.395H151.772Z" fill="#BA68C8"/>
<path opacity="0.25" d="M151.772 262.395C152.816 260.634 154.551 258.979 156.985 257.575C165.506 252.655 179.322 252.655 187.843 257.575C190.277 258.979 192.012 260.634 193.056 262.395H194.234V266.853H194.219C194.062 269.953 191.941 273.025 187.843 275.391C179.322 280.31 165.506 280.31 156.985 275.391C152.887 273.025 150.751 269.953 150.594 266.853V266.853V262.395H151.772Z" fill="black"/>
<path opacity="0.1" d="M172.413 253.885C177.997 253.885 183.583 255.115 187.843 257.575C190.277 258.979 192.012 260.634 193.055 262.395H194.234V266.853H194.219C194.062 269.953 191.941 273.025 187.843 275.391C183.583 277.851 177.997 279.081 172.413 279.081V253.885Z" fill="black"/>
<path opacity="0.1" d="M184.332 255.93C185.574 256.398 186.753 256.945 187.843 257.574C190.277 258.979 192.012 260.633 193.055 262.394H194.234V266.853H194.219C194.062 269.952 191.941 273.025 187.843 275.391C186.753 276.02 185.573 276.567 184.332 277.035V255.93Z" fill="black"/>
<path opacity="0.5" d="M160.5 255.93C159.258 256.398 158.079 256.945 156.988 257.574C154.555 258.979 152.819 260.633 151.776 262.394H150.597V266.853V266.852C150.755 269.952 152.891 273.024 156.988 275.391C158.079 276.02 159.259 276.567 160.5 277.035V255.93Z" fill="#BA68C8"/>
<path d="M187.844 253.488C196.365 258.408 196.364 266.385 187.844 271.305C180.388 275.609 168.879 276.148 160.409 272.92L160.408 272.919C160.295 272.876 160.183 272.833 160.07 272.788C158.985 272.356 157.951 271.863 156.985 271.305C149.879 267.202 148.698 260.974 153.445 256.165C153.446 256.163 153.447 256.163 153.447 256.163C154.391 255.205 155.571 254.305 156.985 253.488C165.505 248.569 179.322 248.569 187.844 253.488Z" fill="#BA68C8"/>
<path opacity="0.2" d="M187.844 253.488C196.365 258.408 196.364 266.385 187.844 271.305C180.388 275.609 168.879 276.148 160.409 272.92L160.408 272.919C160.295 272.876 160.183 272.833 160.07 272.788C158.985 272.356 157.951 271.863 156.985 271.305C149.879 267.202 148.698 260.974 153.445 256.165C153.446 256.163 153.447 256.163 153.447 256.163C154.391 255.205 155.571 254.305 156.985 253.488C165.505 248.569 179.322 248.569 187.844 253.488Z" fill="black"/>
<path opacity="0.5" d="M153.446 256.166C153.354 256.269 150.374 259.414 151.164 263.939C151.918 268.268 157.981 271.913 160.07 272.789C158.986 272.357 157.952 271.864 156.986 271.306C149.88 267.202 148.699 260.975 153.446 256.166Z" fill="#F5F5F5"/>
<path opacity="0.5" d="M191.384 268.63C191.475 268.527 194.456 265.382 193.666 260.858C192.911 256.528 186.848 252.884 184.758 252.008C185.843 252.439 186.877 252.933 187.843 253.491C194.949 257.593 196.13 263.821 191.384 268.63Z" fill="#F5F5F5"/>
<path d="M158.061 270.659C150.139 266.086 150.139 258.671 158.061 254.098C165.982 249.525 178.825 249.525 186.746 254.098C194.668 258.671 194.668 266.086 186.746 270.659C178.825 275.233 165.982 275.233 158.061 270.659Z" fill="#BA68C8"/>
<path opacity="0.4" d="M158.061 270.659C150.139 266.086 150.139 258.671 158.061 254.098C165.982 249.525 178.825 249.525 186.746 254.098C194.668 258.671 194.668 266.086 186.746 270.659C178.825 275.233 165.982 275.233 158.061 270.659Z" fill="white"/>
<path opacity="0.2" d="M153.039 265.875C151.409 262.862 151.941 259.54 154.632 256.722C155.13 256.201 155.704 255.698 156.35 255.218C156.852 254.842 157.401 254.481 157.992 254.135C158.316 253.946 158.649 253.765 158.992 253.594C158.149 254.981 158.457 256.467 163.235 256.746C172.584 257.292 160.736 266.226 160.736 266.226C160.736 266.226 154.71 263.317 153.039 265.875Z" fill="white"/>
<path opacity="0.5" d="M154.005 263.406C152.602 263.248 151.907 261.806 152.452 260.183C152.998 258.561 154.577 257.372 155.98 257.53C157.383 257.687 158.078 259.13 157.533 260.752C156.988 262.375 155.408 263.563 154.005 263.406Z" fill="white"/>
<path d="M168.789 270.85C169.25 267.378 184.425 257.767 184.425 257.767C184.425 257.767 187.791 256.417 186.673 254.064C187.257 254.399 187.798 254.749 188.296 255.114C188.647 255.367 188.975 255.627 189.282 255.894C193.799 259.806 193.805 264.945 189.28 268.862C188.975 269.128 188.645 269.389 188.296 269.644C187.83 269.983 187.331 270.309 186.791 270.623C186.276 270.925 185.738 271.204 185.183 271.465C184.741 271.675 184.281 271.872 183.815 272.055C183.352 272.238 182.877 272.409 182.393 272.568C180.951 273.041 179.429 273.402 177.865 273.655C177.528 273.709 177.186 273.759 176.847 273.803C175.355 273.994 173.839 274.09 172.319 274.087C170.454 274.083 168.589 273.932 166.781 273.633C166.782 273.631 169.224 273.133 168.789 270.85Z" fill="#BA68C8"/>
<path opacity="0.3" d="M168.789 270.85C169.25 267.378 184.425 257.767 184.425 257.767C184.425 257.767 187.791 256.417 186.673 254.064C187.257 254.399 187.798 254.749 188.296 255.114C188.647 255.367 188.975 255.627 189.282 255.894C193.799 259.806 193.805 264.945 189.28 268.862C188.975 269.128 188.645 269.389 188.296 269.644C187.83 269.983 187.331 270.309 186.791 270.623C186.276 270.925 185.738 271.204 185.183 271.465C184.741 271.675 184.281 271.872 183.815 272.055C183.352 272.238 182.877 272.409 182.393 272.568C180.951 273.041 179.429 273.402 177.865 273.655C177.528 273.709 177.186 273.759 176.847 273.803C175.355 273.994 173.839 274.09 172.319 274.087C170.454 274.083 168.589 273.932 166.781 273.633C166.782 273.631 169.224 273.133 168.789 270.85Z" fill="white"/>
<path d="M183.09 256.21C188.751 259.478 188.981 264.692 183.781 268.12C183.56 268.265 183.328 268.409 183.088 268.548C177.186 271.956 167.621 271.956 161.72 268.548C155.818 265.141 155.816 259.617 161.718 256.21C161.958 256.071 162.208 255.938 162.46 255.81C168.396 252.808 177.43 252.942 183.09 256.21Z" fill="#BA68C8"/>
<path opacity="0.2" d="M183.09 256.21C188.751 259.478 188.981 264.692 183.781 268.12C183.56 268.265 183.328 268.409 183.088 268.548C177.186 271.956 167.621 271.956 161.72 268.548C155.818 265.141 155.816 259.617 161.718 256.21C161.958 256.071 162.208 255.938 162.46 255.81C168.396 252.808 177.43 252.942 183.09 256.21Z" fill="black"/>
<path d="M172.4 270.718C164.422 270.718 157.955 266.984 157.955 262.378C157.955 257.773 164.422 254.039 172.4 254.039C180.377 254.039 186.844 257.773 186.844 262.378C186.844 266.984 180.377 270.718 172.4 270.718Z" fill="#BA68C8"/>
<path opacity="0.5" d="M172.4 270.718C164.422 270.718 157.955 266.984 157.955 262.378C157.955 257.773 164.422 254.039 172.4 254.039C180.377 254.039 186.844 257.773 186.844 262.378C186.844 266.984 180.377 270.718 172.4 270.718Z" fill="black"/>
<path d="M182.615 258.808C176.974 255.551 167.829 255.551 162.187 258.808C159.88 260.139 158.518 261.81 158.098 263.541C158.519 265.273 159.881 266.943 162.187 268.275C167.828 271.532 176.974 271.532 182.614 268.275C184.921 266.943 186.283 265.273 186.703 263.541C186.283 261.81 184.921 260.139 182.615 258.808Z" fill="#BA68C8"/>
<path opacity="0.35" d="M182.615 258.808C176.974 255.551 167.829 255.551 162.187 258.808C159.88 260.139 158.518 261.81 158.098 263.541C158.519 265.273 159.881 266.943 162.187 268.275C167.828 271.532 176.974 271.532 182.614 268.275C184.921 266.943 186.283 265.273 186.703 263.541C186.283 261.81 184.921 260.139 182.615 258.808Z" fill="black"/>
<path d="M163.307 264.89C163.309 264.609 163.304 263.462 163.306 263.167C163.312 262.46 163.796 261.774 164.848 261.158C164.86 261.149 164.873 261.141 164.885 261.135C166.825 260.015 168.828 260.161 170.614 260.611C170.619 260.612 170.624 260.612 170.629 260.613C171.388 260.805 172.109 261.051 172.767 261.277C173.677 261.593 174.423 261.85 175.061 261.987C175.063 261.988 175.063 261.988 175.065 261.989C175.464 262.074 175.822 262.114 176.156 262.093C176.475 262.074 176.771 261.995 177.059 261.853C177.035 261.837 177.013 261.82 176.987 261.803C176.916 261.756 176.84 261.709 176.76 261.664C176.558 261.547 176.358 261.446 176.156 261.363C175.031 260.887 173.948 260.909 172.944 261.29L171.092 259.422V257.708C172.738 257.15 174.448 257.091 176.156 257.524C176.694 257.661 177.231 257.848 177.766 258.081L179.617 257.012L181.828 258.288V260.002L181.071 260.439C181.288 260.775 181.397 261.11 181.396 261.438C181.395 261.723 181.393 262.862 181.394 263.15C181.396 263.858 180.886 264.54 179.82 265.156C178.79 265.751 177.766 265.998 176.769 266.035L176.767 266.034C176.565 266.043 176.359 266.04 176.157 266.031C175.001 265.976 173.893 265.667 172.879 265.323C172.662 265.25 172.45 265.177 172.241 265.103L174.105 266.972V268.687C171.473 269.741 168.904 269.24 166.962 268.377L165.134 269.433L162.924 268.157V266.443L163.682 266.005C163.434 265.632 163.305 265.258 163.307 264.89ZM167.968 264.743C168.137 264.84 168.309 264.926 168.481 265C169.795 265.562 171.149 265.442 172.094 265.053C170.364 264.443 168.919 263.909 167.687 264.565C167.774 264.625 167.866 264.684 167.968 264.743Z" fill="#BA68C8"/>
<path d="M170.614 260.611C170.619 260.612 170.624 260.612 170.629 260.613C171.388 260.805 172.109 261.051 172.767 261.277C173.677 261.593 174.423 261.85 175.061 261.987C175.063 261.988 175.063 261.988 175.065 261.989C175.464 262.074 175.822 262.114 176.156 262.093C176.53 262.071 176.873 261.972 177.207 261.779C177.918 261.369 178.021 260.767 176.987 260.089C176.916 260.042 176.84 259.996 176.76 259.949C176.558 259.833 176.358 259.732 176.156 259.649C175.031 259.173 173.948 259.195 172.944 259.576L171.092 257.708C172.738 257.15 174.449 257.091 176.156 257.524C176.694 257.661 177.231 257.848 177.766 258.081L179.617 257.012L181.828 258.288L179.998 259.345C179.998 259.345 180.003 259.35 180.015 259.359C181.872 260.771 181.91 262.235 179.82 263.442C178.79 264.036 177.766 264.284 176.769 264.32L176.767 264.319C176.565 264.327 176.359 264.326 176.157 264.316C175.001 264.262 173.893 263.952 172.879 263.608C170.758 262.899 169.039 262.063 167.611 262.888C166.654 263.441 166.919 264.135 167.97 264.742C168.14 264.84 168.312 264.926 168.483 264.999C169.828 265.575 171.216 265.436 172.164 265.025L174.106 266.972C171.474 268.026 168.905 267.526 166.963 266.663L165.134 267.718L162.924 266.442L164.752 265.386C162.914 263.964 162.702 262.415 164.849 261.157C164.861 261.149 164.874 261.141 164.885 261.134C166.824 260.015 168.828 260.161 170.614 260.611Z" fill="#BA68C8"/>
<g opacity="0.3">
<path d="M170.614 260.611C170.619 260.612 170.624 260.612 170.629 260.613C171.388 260.805 172.109 261.051 172.767 261.277C173.677 261.593 174.423 261.85 175.061 261.987C175.063 261.988 175.063 261.988 175.065 261.989C175.464 262.074 175.822 262.114 176.156 262.093C176.53 262.071 176.873 261.972 177.207 261.779C177.918 261.369 178.021 260.767 176.987 260.089C176.916 260.042 176.84 259.996 176.76 259.949C176.558 259.833 176.358 259.732 176.156 259.649C175.031 259.173 173.948 259.195 172.944 259.576L171.092 257.708C172.738 257.15 174.449 257.091 176.156 257.524C176.694 257.661 177.231 257.848 177.766 258.081L179.617 257.012L181.828 258.288L179.998 259.345C179.998 259.345 180.003 259.35 180.015 259.359C181.872 260.771 181.91 262.235 179.82 263.442C178.79 264.036 177.766 264.284 176.769 264.32L176.767 264.319C176.565 264.327 176.359 264.326 176.157 264.316C175.001 264.262 173.893 263.952 172.879 263.608C170.758 262.899 169.039 262.063 167.611 262.888C166.654 263.441 166.919 264.135 167.97 264.742C168.14 264.84 168.312 264.926 168.483 264.999C169.828 265.575 171.216 265.436 172.164 265.025L174.106 266.972C171.474 268.026 168.905 267.526 166.963 266.663L165.134 267.718L162.924 266.442L164.752 265.386C162.914 263.964 162.702 262.415 164.849 261.157C164.861 261.149 164.874 261.141 164.885 261.134C166.824 260.015 168.828 260.161 170.614 260.611Z" fill="white"/>
</g>
<path opacity="0.45" d="M181.828 258.287L179.597 257.276L177.767 258.08L179.619 257.012L181.828 258.287Z" fill="#F5F5F5"/>
<path opacity="0.45" d="M176.414 257.595C175.222 257.337 173.294 257.263 171.663 257.755L172.946 259.576L171.094 257.709C173.066 257.08 174.812 257.122 176.414 257.595Z" fill="#F5F5F5"/>
<path opacity="0.45" d="M164.887 261.135C164.876 261.142 164.862 261.149 164.851 261.158C162.704 262.415 162.916 263.965 164.754 265.387C163.126 263.612 163.419 262.374 165.189 261.353C166.955 260.333 169.217 260.344 170.617 260.61C168.831 260.161 166.827 260.015 164.887 261.135Z" fill="#F5F5F5"/>
<path opacity="0.45" d="M164.752 265.387L163.349 266.464L165.133 267.719L162.923 266.443L164.752 265.387Z" fill="#F5F5F5"/>
<path opacity="0.45" d="M168.488 265C170.429 265.92 172.01 265.307 172.01 265.307L174.109 266.973L172.168 265.027C171.22 265.437 169.832 265.576 168.488 265Z" fill="#F5F5F5"/>
<path opacity="0.45" d="M175.068 261.99C175.904 262.318 177.107 262.263 177.716 261.739C178.354 261.19 177.944 260.601 176.991 260.09C178.025 260.768 177.922 261.37 177.211 261.78C176.877 261.973 176.533 262.072 176.159 262.094C175.825 262.114 175.467 262.075 175.068 261.99Z" fill="#F5F5F5"/>
<path opacity="0.45" d="M180.015 259.357C180.171 259.496 181.501 260.736 180.914 261.976C180.291 263.299 178.34 264.147 176.767 264.318L176.769 264.319C177.766 264.283 178.79 264.035 179.82 263.441C181.911 262.234 181.872 260.769 180.015 259.357Z" fill="#F5F5F5"/>
<path d="M147.647 256.113C148.691 254.352 150.426 252.698 152.86 251.293C161.381 246.374 175.197 246.374 183.718 251.293C186.152 252.698 187.887 254.352 188.931 256.113H190.109V260.572H190.094C189.937 263.671 187.816 266.744 183.718 269.11C175.197 274.029 161.381 274.029 152.86 269.11C148.762 266.744 146.626 263.671 146.469 260.571V260.572V256.113H147.647Z" fill="#BA68C8"/>
<path opacity="0.25" d="M147.647 256.113C148.691 254.352 150.426 252.698 152.86 251.293C161.381 246.374 175.197 246.374 183.718 251.293C186.152 252.698 187.887 254.352 188.931 256.113H190.109V260.572H190.094C189.937 263.671 187.816 266.744 183.718 269.11C175.197 274.029 161.381 274.029 152.86 269.11C148.762 266.744 146.626 263.671 146.469 260.571V260.572V256.113H147.647Z" fill="black"/>
<path opacity="0.1" d="M168.288 247.604C173.872 247.604 179.458 248.833 183.718 251.293C186.152 252.698 187.887 254.353 188.93 256.114H190.109V260.572H190.094C189.937 263.672 187.816 266.744 183.718 269.11C179.458 271.57 173.872 272.8 168.288 272.8V247.604Z" fill="black"/>
<path opacity="0.1" d="M180.207 249.648C181.449 250.117 182.628 250.663 183.718 251.293C186.152 252.698 187.887 254.352 188.93 256.113H190.109V260.572H190.094C189.937 263.671 187.816 266.744 183.718 269.109C182.628 269.739 181.449 270.285 180.207 270.754V249.648Z" fill="black"/>
<path opacity="0.5" d="M156.375 249.648C155.133 250.117 153.954 250.663 152.863 251.293C150.43 252.698 148.694 254.352 147.651 256.113H146.472V260.572V260.571C146.63 263.671 148.766 266.744 152.863 269.109C153.954 269.739 155.133 270.285 156.375 270.754V249.648Z" fill="#BA68C8"/>
<path d="M183.719 247.207C192.24 252.127 192.239 260.104 183.719 265.023C176.263 269.328 164.754 269.867 156.284 266.638L156.283 266.637C156.17 266.594 156.057 266.551 155.945 266.506C154.86 266.074 153.826 265.581 152.86 265.023C145.754 260.92 144.573 254.692 149.32 249.883C149.321 249.881 149.322 249.881 149.322 249.881C150.266 248.924 151.446 248.023 152.86 247.207C161.38 242.288 175.197 242.288 183.719 247.207Z" fill="#BA68C8"/>
<path opacity="0.2" d="M183.719 247.207C192.24 252.127 192.239 260.104 183.719 265.023C176.263 269.328 164.754 269.867 156.284 266.638L156.283 266.637C156.17 266.594 156.057 266.551 155.945 266.506C154.86 266.074 153.826 265.581 152.86 265.023C145.754 260.92 144.573 254.692 149.32 249.883C149.321 249.881 149.322 249.881 149.322 249.881C150.266 248.924 151.446 248.023 152.86 247.207C161.38 242.288 175.197 242.288 183.719 247.207Z" fill="black"/>
<path opacity="0.5" d="M149.321 249.883C149.229 249.986 146.249 253.13 147.039 257.655C147.793 261.985 153.856 265.629 155.945 266.505C154.861 266.074 153.827 265.581 152.861 265.022C145.755 260.92 144.574 254.692 149.321 249.883Z" fill="#F5F5F5"/>
<path opacity="0.5" d="M187.258 262.346C187.35 262.243 190.33 259.099 189.54 254.574C188.786 250.245 182.723 246.601 180.633 245.725C181.718 246.156 182.752 246.649 183.718 247.208C190.825 251.31 192.005 257.538 187.258 262.346Z" fill="#F5F5F5"/>
<path d="M153.936 264.38C146.014 259.807 146.014 252.392 153.936 247.819C161.857 243.245 174.7 243.245 182.621 247.819C190.543 252.392 190.543 259.807 182.621 264.38C174.7 268.953 161.857 268.953 153.936 264.38Z" fill="#BA68C8"/>
<path opacity="0.4" d="M153.936 264.38C146.014 259.807 146.014 252.392 153.936 247.819C161.857 243.245 174.7 243.245 182.621 247.819C190.543 252.392 190.543 259.807 182.621 264.38C174.7 268.953 161.857 268.953 153.936 264.38Z" fill="white"/>
<path opacity="0.2" d="M148.914 259.596C147.284 256.583 147.816 253.261 150.507 250.443C151.005 249.922 151.579 249.419 152.225 248.938C152.727 248.563 153.276 248.201 153.867 247.856C154.191 247.667 154.524 247.486 154.867 247.314C154.024 248.702 154.333 250.188 159.11 250.467C168.459 251.013 156.611 259.947 156.611 259.947C156.611 259.947 150.585 257.037 148.914 259.596Z" fill="white"/>
<path opacity="0.5" d="M149.88 257.126C148.477 256.969 147.782 255.526 148.327 253.904C148.873 252.281 150.452 251.093 151.855 251.25C153.258 251.408 153.953 252.85 153.408 254.473C152.863 256.096 151.283 257.283 149.88 257.126Z" fill="white"/>
<path d="M164.664 264.571C165.124 261.099 180.3 251.488 180.3 251.488C180.3 251.488 183.665 250.137 182.548 247.785C183.131 248.12 183.672 248.47 184.171 248.834C184.522 249.088 184.85 249.347 185.157 249.615C189.674 253.527 189.68 258.666 185.155 262.583C184.85 262.849 184.52 263.11 184.171 263.365C183.705 263.704 183.206 264.029 182.666 264.344C182.151 264.646 181.613 264.925 181.058 265.186C180.616 265.395 180.156 265.592 179.69 265.775C179.227 265.959 178.752 266.13 178.268 266.288C176.826 266.762 175.304 267.123 173.74 267.376C173.403 267.43 173.061 267.48 172.722 267.524C171.231 267.715 169.715 267.811 168.195 267.808C166.329 267.804 164.465 267.653 162.657 267.353C162.656 267.352 165.097 266.854 164.664 264.571Z" fill="#BA68C8"/>
<path opacity="0.3" d="M164.664 264.571C165.124 261.099 180.3 251.488 180.3 251.488C180.3 251.488 183.665 250.137 182.548 247.785C183.131 248.12 183.672 248.47 184.171 248.834C184.522 249.088 184.85 249.347 185.157 249.615C189.674 253.527 189.68 258.666 185.155 262.583C184.85 262.849 184.52 263.11 184.171 263.365C183.705 263.704 183.206 264.029 182.666 264.344C182.151 264.646 181.613 264.925 181.058 265.186C180.616 265.395 180.156 265.592 179.69 265.775C179.227 265.959 178.752 266.13 178.268 266.288C176.826 266.762 175.304 267.123 173.74 267.376C173.403 267.43 173.061 267.48 172.722 267.524C171.231 267.715 169.715 267.811 168.195 267.808C166.329 267.804 164.465 267.653 162.657 267.353C162.656 267.352 165.097 266.854 164.664 264.571Z" fill="white"/>
<path d="M178.965 249.929C184.626 253.197 184.856 258.411 179.656 261.839C179.435 261.984 179.203 262.128 178.963 262.267C173.061 265.675 163.496 265.675 157.595 262.267C151.693 258.86 151.691 253.336 157.593 249.929C157.833 249.79 158.083 249.657 158.335 249.529C164.271 246.527 173.304 246.66 178.965 249.929Z" fill="#BA68C8"/>
<path opacity="0.2" d="M178.965 249.929C184.626 253.197 184.856 258.411 179.656 261.839C179.435 261.984 179.203 262.128 178.963 262.267C173.061 265.675 163.496 265.675 157.595 262.267C151.693 258.86 151.691 253.336 157.593 249.929C157.833 249.79 158.083 249.657 158.335 249.529C164.271 246.527 173.304 246.66 178.965 249.929Z" fill="black"/>
<path d="M178.488 250.202C184.129 253.459 184.129 258.739 178.488 261.996C172.848 265.252 163.702 265.252 158.061 261.996C152.42 258.739 152.42 253.459 158.061 250.202C163.702 246.946 172.848 246.946 178.488 250.202Z" fill="#BA68C8"/>
<path opacity="0.5" d="M178.488 250.202C184.129 253.459 184.129 258.739 178.488 261.996C172.848 265.252 163.702 265.252 158.061 261.996C152.42 258.739 152.42 253.459 158.061 250.202C163.702 246.946 172.848 246.946 178.488 250.202Z" fill="black"/>
<path d="M178.489 252.529C172.849 249.272 163.703 249.272 158.062 252.529C155.755 253.86 154.393 255.53 153.973 257.262C154.393 258.994 155.755 260.664 158.062 261.996C163.702 265.253 172.848 265.253 178.489 261.996C180.796 260.664 182.158 258.993 182.578 257.262C182.158 255.53 180.796 253.86 178.489 252.529Z" fill="#BA68C8"/>
<path opacity="0.35" d="M178.489 252.529C172.849 249.272 163.703 249.272 158.062 252.529C155.755 253.86 154.393 255.53 153.973 257.262C154.393 258.994 155.755 260.664 158.062 261.996C163.702 265.253 172.848 265.253 178.489 261.996C180.796 260.664 182.158 258.993 182.578 257.262C182.158 255.53 180.796 253.86 178.489 252.529Z" fill="black"/>
<path d="M159.183 258.611C159.184 258.33 159.179 257.183 159.182 256.887C159.187 256.18 159.672 255.495 160.724 254.879C160.735 254.87 160.749 254.862 160.76 254.855C162.7 253.735 164.704 253.882 166.489 254.331C166.495 254.333 166.499 254.333 166.505 254.334C167.264 254.525 167.985 254.772 168.643 254.998C169.552 255.314 170.298 255.57 170.937 255.708C170.939 255.709 170.939 255.709 170.941 255.71C171.339 255.795 171.698 255.834 172.031 255.814C172.35 255.795 172.647 255.716 172.935 255.574C172.91 255.558 172.888 255.54 172.863 255.524C172.792 255.476 172.716 255.431 172.636 255.384C172.434 255.268 172.233 255.168 172.031 255.084C170.906 254.608 169.823 254.63 168.82 255.011L166.968 253.143V251.428C168.614 250.87 170.325 250.812 172.031 251.245C172.569 251.381 173.107 251.569 173.641 251.802L175.493 250.732L177.703 252.009V253.723L176.946 254.16C177.163 254.496 177.272 254.831 177.271 255.16C177.27 255.445 177.268 256.584 177.269 256.871C177.271 257.579 176.761 258.262 175.695 258.877C174.665 259.472 173.641 259.72 172.644 259.756L172.642 259.754C172.44 259.763 172.234 259.761 172.031 259.752C170.875 259.697 169.768 259.388 168.753 259.044C168.536 258.971 168.324 258.897 168.115 258.824L169.979 260.693V262.407C167.348 263.462 164.778 262.961 162.837 262.098L161.009 263.154L158.799 261.878V260.164L159.557 259.726C159.309 259.353 159.181 258.979 159.183 258.611ZM163.844 258.464C164.014 258.562 164.186 258.647 164.357 258.72C165.671 259.283 167.025 259.163 167.971 258.774C166.24 258.164 164.795 257.63 163.563 258.285C163.65 258.345 163.742 258.404 163.844 258.464Z" fill="#BA68C8"/>
<path d="M166.489 254.331C166.494 254.333 166.499 254.333 166.504 254.334C167.263 254.525 167.984 254.772 168.642 254.998C169.552 255.314 170.298 255.57 170.936 255.708C170.938 255.709 170.938 255.709 170.94 255.71C171.338 255.795 171.697 255.834 172.031 255.814C172.405 255.792 172.748 255.692 173.082 255.5C173.793 255.09 173.896 254.488 172.863 253.81C172.792 253.762 172.716 253.717 172.636 253.67C172.434 253.554 172.233 253.453 172.031 253.369C170.906 252.894 169.823 252.916 168.82 253.297L166.968 251.428C168.614 250.87 170.325 250.812 172.031 251.245C172.569 251.381 173.107 251.569 173.641 251.802L175.493 250.732L177.703 252.009L175.873 253.066C175.873 253.066 175.878 253.071 175.89 253.08C177.747 254.491 177.785 255.956 175.695 257.162C174.665 257.757 173.641 258.005 172.644 258.041L172.642 258.04C172.44 258.049 172.234 258.046 172.032 258.037C170.876 257.982 169.768 257.672 168.754 257.329C166.633 256.62 164.914 255.784 163.486 256.609C162.529 257.161 162.794 257.856 163.845 258.463C164.015 258.561 164.187 258.647 164.358 258.72C165.703 259.296 167.091 259.157 168.039 258.746L169.981 260.693C167.349 261.747 164.78 261.246 162.839 260.383L161.01 261.439L158.8 260.163L160.629 259.107C158.79 257.685 158.578 256.135 160.726 254.878C160.737 254.869 160.751 254.862 160.762 254.855C162.7 253.736 164.704 253.882 166.489 254.331Z" fill="#BA68C8"/>
<g opacity="0.3">
<path d="M166.489 254.331C166.494 254.333 166.499 254.333 166.504 254.334C167.263 254.525 167.984 254.772 168.642 254.998C169.552 255.314 170.298 255.57 170.936 255.708C170.938 255.709 170.938 255.709 170.94 255.71C171.338 255.795 171.697 255.834 172.031 255.814C172.405 255.792 172.748 255.692 173.082 255.5C173.793 255.09 173.896 254.488 172.863 253.81C172.792 253.762 172.716 253.717 172.636 253.67C172.434 253.554 172.233 253.453 172.031 253.369C170.906 252.894 169.823 252.916 168.82 253.297L166.968 251.428C168.614 250.87 170.325 250.812 172.031 251.245C172.569 251.381 173.107 251.569 173.641 251.802L175.493 250.732L177.703 252.009L175.873 253.066C175.873 253.066 175.878 253.071 175.89 253.08C177.747 254.491 177.785 255.956 175.695 257.162C174.665 257.757 173.641 258.005 172.644 258.041L172.642 258.04C172.44 258.049 172.234 258.046 172.032 258.037C170.876 257.982 169.768 257.672 168.754 257.329C166.633 256.62 164.914 255.784 163.486 256.609C162.529 257.161 162.794 257.856 163.845 258.463C164.015 258.561 164.187 258.647 164.358 258.72C165.703 259.296 167.091 259.157 168.039 258.746L169.981 260.693C167.349 261.747 164.78 261.246 162.839 260.383L161.01 261.439L158.8 260.163L160.629 259.107C158.79 257.685 158.578 256.135 160.726 254.878C160.737 254.869 160.751 254.862 160.762 254.855C162.7 253.736 164.704 253.882 166.489 254.331Z" fill="white"/>
</g>
<path opacity="0.45" d="M177.703 252.009L175.472 250.997L173.641 251.802L175.493 250.732L177.703 252.009Z" fill="#F5F5F5"/>
<path opacity="0.45" d="M172.289 251.315C171.097 251.057 169.169 250.984 167.538 251.476L168.821 253.297L166.969 251.43C168.941 250.8 170.687 250.843 172.289 251.315Z" fill="#F5F5F5"/>
<path opacity="0.45" d="M160.762 254.856C160.751 254.862 160.737 254.87 160.726 254.879C158.579 256.136 158.791 257.685 160.629 259.108C159.001 257.333 159.294 256.095 161.064 255.073C162.83 254.054 165.092 254.065 166.492 254.331C164.707 253.882 162.702 253.736 160.762 254.856Z" fill="#F5F5F5"/>
<path opacity="0.45" d="M160.627 259.109L159.225 260.187L161.008 261.441L158.798 260.165L160.627 259.109Z" fill="#F5F5F5"/>
<path opacity="0.45" d="M164.362 258.721C166.304 259.641 167.885 259.028 167.885 259.028L169.984 260.694L168.043 258.748C167.095 259.158 165.706 259.297 164.362 258.721Z" fill="#F5F5F5"/>
<path opacity="0.45" d="M170.936 255.711C171.771 256.039 172.975 255.983 173.583 255.46C174.221 254.91 173.812 254.322 172.858 253.811C173.892 254.489 173.789 255.09 173.077 255.501C172.743 255.694 172.4 255.792 172.026 255.814C171.693 255.836 171.334 255.796 170.936 255.711Z" fill="#F5F5F5"/>
<path opacity="0.45" d="M175.89 253.08C176.046 253.219 177.376 254.459 176.789 255.699C176.166 257.021 174.216 257.87 172.642 258.041L172.644 258.042C173.641 258.005 174.665 257.758 175.695 257.163C177.786 255.956 177.747 254.492 175.89 253.08Z" fill="#F5F5F5"/>
<path d="M152.601 248.772C153.645 247.011 155.38 245.356 157.813 243.951C166.335 239.032 180.15 239.032 188.672 243.951C191.105 245.356 192.84 247.011 193.884 248.772H195.062V253.23H195.047C194.89 256.329 192.769 259.402 188.672 261.767C180.15 266.687 166.335 266.687 157.813 261.767C153.715 259.402 151.579 256.329 151.422 253.229V248.771L152.601 248.772Z" fill="#BA68C8"/>
<path opacity="0.25" d="M152.601 248.772C153.645 247.011 155.38 245.356 157.813 243.951C166.335 239.032 180.15 239.032 188.672 243.951C191.105 245.356 192.84 247.011 193.884 248.772H195.062V253.23H195.047C194.89 256.329 192.769 259.402 188.672 261.767C180.15 266.687 166.335 266.687 157.813 261.767C153.715 259.402 151.579 256.329 151.422 253.229V248.771L152.601 248.772Z" fill="black"/>
<path opacity="0.1" d="M173.24 240.262C178.825 240.262 184.41 241.491 188.671 243.952C191.104 245.356 192.84 247.011 193.883 248.772H195.062V253.23H195.047C194.89 256.329 192.769 259.402 188.672 261.767C184.411 264.227 178.826 265.457 173.241 265.457L173.24 240.262Z" fill="black"/>
<path opacity="0.1" d="M185.159 242.307C186.401 242.775 187.58 243.322 188.671 243.951C191.104 245.356 192.84 247.01 193.883 248.771H195.062V253.229H195.047C194.89 256.329 192.769 259.401 188.672 261.767C187.581 262.396 186.402 262.943 185.16 263.412V242.307H185.159Z" fill="black"/>
<path opacity="0.5" d="M161.32 242.307C160.078 242.775 158.899 243.322 157.809 243.951C155.375 245.356 153.64 247.01 152.597 248.771H151.418V253.229C151.575 256.329 153.711 259.401 157.809 261.767C158.899 262.397 160.079 262.944 161.32 263.412V242.307Z" fill="#BA68C8"/>
<path d="M188.672 239.865C197.193 244.785 197.192 252.762 188.672 257.682C181.216 261.986 169.707 262.525 161.237 259.296L161.236 259.296C161.123 259.252 161.011 259.209 160.898 259.164C159.813 258.733 158.779 258.239 157.813 257.681C150.707 253.578 149.526 247.351 154.273 242.541C154.274 242.54 154.275 242.539 154.275 242.539C155.219 241.582 156.398 240.682 157.813 239.865C166.333 234.946 180.15 234.946 188.672 239.865Z" fill="#BA68C8"/>
<path opacity="0.2" d="M188.672 239.865C197.193 244.785 197.192 252.762 188.672 257.682C181.216 261.986 169.707 262.525 161.237 259.296L161.236 259.296C161.123 259.252 161.011 259.209 160.898 259.164C159.813 258.733 158.779 258.239 157.813 257.681C150.707 253.578 149.526 247.351 154.273 242.541C154.274 242.54 154.275 242.539 154.275 242.539C155.219 241.582 156.398 240.682 157.813 239.865C166.333 234.946 180.15 234.946 188.672 239.865Z" fill="black"/>
<path opacity="0.5" d="M154.274 242.543C154.182 242.646 151.202 245.791 151.992 250.316C152.746 254.645 158.809 258.29 160.898 259.165C159.814 258.734 158.78 258.24 157.814 257.682C150.708 253.58 149.527 247.352 154.274 242.543Z" fill="#F5F5F5"/>
<path opacity="0.5" d="M192.211 255.005C192.303 254.902 195.283 251.758 194.493 247.233C193.739 242.903 187.676 239.259 185.586 238.383C186.671 238.814 187.705 239.308 188.671 239.866C195.777 243.969 196.958 250.197 192.211 255.005Z" fill="#F5F5F5"/>
<path d="M173.232 260.466C162.03 260.466 152.948 255.223 152.948 248.756C152.948 242.288 162.03 237.045 173.232 237.045C184.434 237.045 193.516 242.288 193.516 248.756C193.516 255.223 184.434 260.466 173.232 260.466Z" fill="#BA68C8"/>
<path opacity="0.4" d="M173.232 260.466C162.03 260.466 152.948 255.223 152.948 248.756C152.948 242.288 162.03 237.045 173.232 237.045C184.434 237.045 193.516 242.288 193.516 248.756C193.516 255.223 184.434 260.466 173.232 260.466Z" fill="white"/>
<path opacity="0.2" d="M192.593 252.252C194.224 249.239 193.692 245.917 191.001 243.099C190.503 242.578 189.929 242.075 189.282 241.595C188.781 241.219 188.231 240.858 187.64 240.512C187.316 240.323 186.984 240.143 186.641 239.971C187.484 241.358 187.175 242.844 182.398 243.123C173.049 243.669 184.896 252.604 184.896 252.604C184.896 252.604 190.923 249.693 192.593 252.252Z" fill="white"/>
<path opacity="0.5" d="M191.628 249.783C193.031 249.625 193.727 248.183 193.181 246.56C192.636 244.937 191.057 243.749 189.654 243.907C188.251 244.064 187.555 245.507 188.101 247.129C188.646 248.751 190.225 249.939 191.628 249.783Z" fill="white"/>
<path d="M176.837 257.229C176.377 253.757 161.201 244.146 161.201 244.146C161.201 244.146 157.836 242.796 158.953 240.443C158.37 240.778 157.829 241.128 157.33 241.493C156.98 241.746 156.651 242.006 156.344 242.273C151.826 246.185 151.82 251.325 156.346 255.241C156.651 255.507 156.981 255.768 157.33 256.022C157.795 256.361 158.295 256.687 158.835 257.001C159.349 257.303 159.887 257.583 160.442 257.844C160.885 258.053 161.345 258.25 161.81 258.433C162.274 258.617 162.748 258.787 163.233 258.946C164.675 259.419 166.196 259.78 167.76 260.034C168.097 260.088 168.439 260.137 168.778 260.181C170.27 260.373 171.785 260.468 173.306 260.465C175.171 260.462 177.036 260.31 178.844 260.011C178.844 260.011 176.404 259.511 176.837 257.229Z" fill="#BA68C8"/>
<path opacity="0.3" d="M176.837 257.229C176.377 253.757 161.201 244.146 161.201 244.146C161.201 244.146 157.836 242.796 158.953 240.443C158.37 240.778 157.829 241.128 157.33 241.493C156.98 241.746 156.651 242.006 156.344 242.273C151.826 246.185 151.82 251.325 156.346 255.241C156.651 255.507 156.981 255.768 157.33 256.022C157.795 256.361 158.295 256.687 158.835 257.001C159.349 257.303 159.887 257.583 160.442 257.844C160.885 258.053 161.345 258.25 161.81 258.433C162.274 258.617 162.748 258.787 163.233 258.946C164.675 259.419 166.196 259.78 167.76 260.034C168.097 260.088 168.439 260.137 168.778 260.181C170.27 260.373 171.785 260.468 173.306 260.465C175.171 260.462 177.036 260.31 178.844 260.011C178.844 260.011 176.404 259.511 176.837 257.229Z" fill="white"/>
<path d="M162.538 242.587C156.877 245.855 156.648 251.07 161.847 254.497C162.068 254.642 162.3 254.786 162.54 254.925C168.442 258.333 178.007 258.333 183.909 254.925C189.81 251.518 189.812 245.994 183.911 242.587C183.671 242.448 183.421 242.314 183.169 242.187C177.232 239.185 168.199 239.319 162.538 242.587Z" fill="#BA68C8"/>
<path opacity="0.2" d="M162.538 242.587C156.877 245.855 156.648 251.07 161.847 254.497C162.068 254.642 162.3 254.786 162.54 254.925C168.442 258.333 178.007 258.333 183.909 254.925C189.81 251.518 189.812 245.994 183.911 242.587C183.671 242.448 183.421 242.314 183.169 242.187C177.232 239.185 168.199 239.319 162.538 242.587Z" fill="black"/>
<path d="M163.014 242.859C157.373 246.115 157.373 251.396 163.014 254.652C168.654 257.909 177.8 257.909 183.441 254.652C189.082 251.396 189.082 246.115 183.441 242.859C177.8 239.602 168.654 239.602 163.014 242.859Z" fill="#BA68C8"/>
<path opacity="0.5" d="M163.014 242.859C157.373 246.115 157.373 251.396 163.014 254.652C168.654 257.909 177.8 257.909 183.441 254.652C189.082 251.396 189.082 246.115 183.441 242.859C177.8 239.602 168.654 239.602 163.014 242.859Z" fill="black"/>
<path d="M163.015 245.185C168.655 241.928 177.801 241.928 183.442 245.185C185.749 246.516 187.111 248.187 187.531 249.918C187.111 251.65 185.749 253.32 183.442 254.652C177.802 257.909 168.656 257.909 163.015 254.652C160.708 253.32 159.346 251.65 158.927 249.918C159.346 248.187 160.708 246.516 163.015 245.185Z" fill="#BA68C8"/>
<path opacity="0.35" d="M163.015 245.185C168.655 241.928 177.801 241.928 183.442 245.185C185.749 246.516 187.111 248.187 187.531 249.918C187.111 251.65 185.749 253.32 183.442 254.652C177.802 257.909 168.656 257.909 163.015 254.652C160.708 253.32 159.346 251.65 158.927 249.918C159.346 248.187 160.708 246.516 163.015 245.185Z" fill="black"/>
<path d="M164.135 251.267C164.137 250.986 164.132 249.839 164.134 249.544C164.14 248.837 164.624 248.151 165.676 247.535C165.688 247.526 165.701 247.518 165.713 247.512C167.653 246.392 169.657 246.538 171.442 246.988C171.447 246.989 171.452 246.989 171.457 246.99C172.216 247.182 172.937 247.428 173.595 247.654C174.505 247.97 175.251 248.227 175.89 248.364C175.891 248.365 175.891 248.365 175.893 248.366C176.292 248.451 176.65 248.491 176.984 248.47C177.303 248.451 177.599 248.372 177.887 248.23C177.863 248.214 177.841 248.197 177.815 248.18C177.745 248.133 177.668 248.087 177.588 248.041C177.386 247.924 177.186 247.824 176.984 247.74C175.859 247.264 174.776 247.286 173.772 247.667L171.92 245.799V244.085C173.566 243.527 175.276 243.468 176.984 243.901C177.522 244.038 178.059 244.225 178.594 244.458L180.446 243.389L182.656 244.665V246.379L181.899 246.816C182.116 247.152 182.226 247.487 182.224 247.816C182.223 248.101 182.221 249.24 182.222 249.527C182.224 250.235 181.714 250.918 180.648 251.533C179.618 252.128 178.594 252.376 177.597 252.412L177.595 252.411C177.393 252.42 177.187 252.417 176.984 252.408C175.829 252.353 174.721 252.044 173.706 251.7C173.489 251.627 173.277 251.554 173.068 251.48L174.932 253.349V255.063C172.301 256.118 169.732 255.617 167.79 254.754L165.961 255.81L163.751 254.534V252.82L164.51 252.382C164.262 252.01 164.134 251.636 164.135 251.267ZM168.796 251.12C168.965 251.219 169.137 251.304 169.309 251.377C170.623 251.94 171.977 251.819 172.922 251.431C171.192 250.821 169.747 250.287 168.515 250.942C168.602 251.001 168.694 251.061 168.796 251.12Z" fill="#BA68C8"/>
<path d="M171.442 246.988C171.448 246.989 171.452 246.989 171.457 246.99C172.216 247.182 172.937 247.428 173.595 247.654C174.505 247.97 175.251 248.227 175.89 248.364C175.891 248.365 175.891 248.365 175.893 248.366C176.292 248.451 176.65 248.491 176.984 248.47C177.358 248.448 177.701 248.349 178.035 248.156C178.746 247.746 178.849 247.144 177.815 246.466C177.745 246.419 177.668 246.373 177.588 246.326C177.386 246.21 177.186 246.109 176.984 246.026C175.859 245.55 174.776 245.572 173.772 245.953L171.92 244.085C173.566 243.527 175.277 243.468 176.984 243.901C177.522 244.038 178.059 244.225 178.594 244.458L180.446 243.389L182.656 244.665L180.826 245.722C180.826 245.722 180.831 245.727 180.843 245.736C182.7 247.148 182.739 248.612 180.648 249.819C179.618 250.413 178.594 250.661 177.597 250.697L177.595 250.696C177.393 250.704 177.187 250.703 176.985 250.694C175.829 250.639 174.721 250.329 173.707 249.986C171.586 249.276 169.868 248.441 168.44 249.265C167.483 249.818 167.747 250.513 168.798 251.12C168.968 251.218 169.139 251.303 169.311 251.377C170.656 251.952 172.044 251.814 172.992 251.403L174.934 253.349C172.302 254.404 169.733 253.903 167.792 253.04L165.963 254.096L163.753 252.82L165.582 251.764C163.743 250.341 163.532 248.792 165.679 247.535C165.691 247.526 165.704 247.518 165.715 247.512C167.653 246.392 169.657 246.539 171.442 246.988Z" fill="#BA68C8"/>
<g opacity="0.3">
<path d="M171.442 246.988C171.448 246.989 171.452 246.989 171.457 246.99C172.216 247.182 172.937 247.428 173.595 247.654C174.505 247.97 175.251 248.227 175.89 248.364C175.891 248.365 175.891 248.365 175.893 248.366C176.292 248.451 176.65 248.491 176.984 248.47C177.358 248.448 177.701 248.349 178.035 248.156C178.746 247.746 178.849 247.144 177.815 246.466C177.745 246.419 177.668 246.373 177.588 246.326C177.386 246.21 177.186 246.109 176.984 246.026C175.859 245.55 174.776 245.572 173.772 245.953L171.92 244.085C173.566 243.527 175.277 243.468 176.984 243.901C177.522 244.038 178.059 244.225 178.594 244.458L180.446 243.389L182.656 244.665L180.826 245.722C180.826 245.722 180.831 245.727 180.843 245.736C182.7 247.148 182.739 248.612 180.648 249.819C179.618 250.413 178.594 250.661 177.597 250.697L177.595 250.696C177.393 250.704 177.187 250.703 176.985 250.694C175.829 250.639 174.721 250.329 173.707 249.986C171.586 249.276 169.868 248.441 168.44 249.265C167.483 249.818 167.747 250.513 168.798 251.12C168.968 251.218 169.139 251.303 169.311 251.377C170.656 251.952 172.044 251.814 172.992 251.403L174.934 253.349C172.302 254.404 169.733 253.903 167.792 253.04L165.963 254.096L163.753 252.82L165.582 251.764C163.743 250.341 163.532 248.792 165.679 247.535C165.691 247.526 165.704 247.518 165.715 247.512C167.653 246.392 169.657 246.539 171.442 246.988Z" fill="white"/>
</g>
<path opacity="0.45" d="M182.656 244.665L180.425 243.653L178.595 244.458L180.447 243.389L182.656 244.665Z" fill="#F5F5F5"/>
<path opacity="0.45" d="M177.242 243.972C176.05 243.713 174.122 243.641 172.492 244.132L173.774 245.954L171.922 244.086C173.894 243.457 175.64 243.499 177.242 243.972Z" fill="#F5F5F5"/>
<path opacity="0.45" d="M165.716 247.512C165.705 247.518 165.691 247.526 165.68 247.535C163.533 248.792 163.745 250.342 165.583 251.764C163.954 249.989 164.247 248.752 166.018 247.73C167.783 246.71 170.045 246.721 171.445 246.987C169.66 246.538 167.655 246.392 165.716 247.512Z" fill="#F5F5F5"/>
<path opacity="0.45" d="M165.58 251.764L164.177 252.842L165.961 254.096L163.751 252.82L165.58 251.764Z" fill="#F5F5F5"/>
<path opacity="0.45" d="M169.315 251.377C171.257 252.297 172.838 251.684 172.838 251.684L174.938 253.35L172.996 251.404C172.048 251.814 170.66 251.953 169.315 251.377Z" fill="#F5F5F5"/>
<path opacity="0.45" d="M175.897 248.368C176.732 248.696 177.936 248.64 178.544 248.116C179.182 247.567 178.772 246.978 177.819 246.467C178.853 247.145 178.75 247.746 178.039 248.157C177.705 248.35 177.362 248.449 176.988 248.471C176.654 248.492 176.295 248.452 175.897 248.368Z" fill="#F5F5F5"/>
<path opacity="0.45" d="M180.843 245.736C180.999 245.875 182.33 247.115 181.743 248.355C181.119 249.678 179.169 250.526 177.595 250.697L177.597 250.698C178.595 250.661 179.619 250.414 180.648 249.82C182.738 248.612 182.7 247.148 180.843 245.736Z" fill="#F5F5F5"/>
<path d="M192.512 246.553L191.962 242.379L191.411 246.553L184.182 246.871L191.411 247.188L191.962 251.362L192.512 247.188L199.742 246.871L192.512 246.553Z" fill="white"/>
<g opacity="0.3">
<path d="M61.7484 255.029C61.7795 255.029 61.8112 255.021 61.8393 255.004L73.6513 248.185C73.7074 248.152 73.7422 248.092 73.7422 248.027C73.7422 247.962 73.7074 247.902 73.6513 247.87L58.8856 239.345C58.8289 239.312 58.76 239.312 58.7038 239.345L46.8918 246.165C46.8357 246.197 46.8015 246.257 46.8015 246.322C46.8015 246.387 46.8363 246.447 46.8918 246.48L61.6569 255.004C61.6855 255.021 61.7172 255.029 61.7484 255.029ZM73.1968 248.028L61.7484 254.638L47.3469 246.323L58.7953 239.713L73.1968 248.028Z" fill="#BA68C8"/>
</g>
<path d="M61.7491 253.143L61.7503 192.005L70.6094 186.891L70.6081 248.028L61.7491 253.143Z" fill="#BA68C8"/>
<path opacity="0.2" d="M61.7491 253.143L61.7503 192.005L70.6094 186.891L70.6081 248.028L61.7491 253.143Z" fill="black"/>
<path d="M61.7488 253.144L49.9367 246.324L49.9349 185.188L61.75 192.006L61.7488 253.144Z" fill="#BA68C8"/>
<path d="M49.9352 185.187L58.7943 180.072L70.6094 186.891L61.7503 192.006L49.9352 185.187Z" fill="#BA68C8"/>
<path opacity="0.25" d="M49.9352 185.187L58.7943 180.072L70.6094 186.891L61.7503 192.006L49.9352 185.187Z" fill="white"/>
<path opacity="0.3" d="M49.9346 185.186L61.8669 191.763L65.7422 189.6L70.6094 186.89L65.8288 189.75L61.9102 192.09C62.0029 193.419 62.0285 247.739 62.0102 249.068C61.9901 250.427 61.9266 251.785 61.7491 253.143C61.5722 251.785 61.5094 250.426 61.4899 249.068C61.4728 247.78 61.4978 193.504 61.5838 192.217L49.9346 185.186Z" fill="white"/>
<g opacity="0.3">
<path d="M83.8974 267.817C83.9285 267.817 83.9602 267.809 83.9883 267.792L95.8003 260.973C95.8565 260.94 95.8906 260.88 95.8906 260.815C95.8906 260.75 95.8558 260.69 95.8003 260.658L81.0347 252.134C80.978 252.101 80.9096 252.101 80.8529 252.134L69.0409 258.953C68.9847 258.986 68.95 259.046 68.95 259.111C68.95 259.176 68.9847 259.236 69.0409 259.268L83.8059 267.793C83.8352 267.809 83.8663 267.817 83.8974 267.817ZM95.3465 260.815L83.898 267.425L69.4965 259.11L80.9444 252.501L95.3465 260.815Z" fill="#BA68C8"/>
</g>
<path d="M83.897 265.929L83.8988 229.248L92.7578 224.133L92.756 260.814L83.897 265.929Z" fill="#BA68C8"/>
<path opacity="0.1" d="M83.897 265.929L83.8988 229.248L92.7578 224.133L92.756 260.814L83.897 265.929Z" fill="white"/>
<path d="M83.8966 265.93L72.0846 259.11L72.0834 222.43L83.8984 229.249L83.8966 265.93Z" fill="#BA68C8"/>
<path opacity="0.3" d="M83.8966 265.93L72.0846 259.11L72.0834 222.43L83.8984 229.249L83.8966 265.93Z" fill="white"/>
<path d="M72.0837 222.429L80.9427 217.314L92.7578 224.134L83.8988 229.248L72.0837 222.429Z" fill="#BA68C8"/>
<path opacity="0.55" d="M72.0837 222.429L80.9427 217.314L92.7578 224.134L83.8988 229.248L72.0837 222.429Z" fill="white"/>
<path opacity="0.3" d="M83.7414 229.467L72.0837 222.43L84.0177 229.009C85.3042 228.28 86.598 227.563 87.8906 226.844L92.7578 224.134L87.9772 226.994C86.6706 227.777 85.3658 228.562 84.0525 229.334C84.094 230.713 84.1367 237.366 84.1495 238.745C84.1635 240.152 84.1696 256.079 84.158 257.486C84.1501 258.894 84.1269 260.301 84.08 261.708C84.0446 263.115 83.9872 264.523 83.897 265.93C83.8067 264.523 83.7499 263.115 83.7146 261.708C83.6682 260.301 83.645 258.894 83.6377 257.486C83.6267 256.079 83.6334 240.152 83.6475 238.745C83.6603 237.41 83.7011 230.801 83.7414 229.467Z" fill="white"/>
<g opacity="0.3">
<path d="M106.045 280.604C106.076 280.604 106.108 280.597 106.136 280.58L117.948 273.76C118.004 273.728 118.039 273.668 118.039 273.603C118.039 273.538 118.004 273.478 117.948 273.445L103.183 264.921C103.126 264.888 103.057 264.888 103.001 264.921L91.1887 271.741C91.1326 271.773 91.0978 271.833 91.0978 271.898C91.0978 271.963 91.1326 272.023 91.1887 272.055L105.954 280.58C105.982 280.597 106.014 280.604 106.045 280.604ZM117.494 273.603L106.045 280.213L91.6438 271.899L103.092 265.289L117.494 273.603Z" fill="#BA68C8"/>
</g>
<path d="M106.046 278.716L106.048 265.826L114.906 260.711L114.905 273.602L106.046 278.716Z" fill="#BA68C8"/>
<path opacity="0.45" d="M106.046 278.716L106.048 265.826L114.906 260.711L114.905 273.602L106.046 278.716Z" fill="black"/>
<path d="M106.045 278.718L94.233 271.898L94.2312 259.008L106.047 265.827L106.045 278.718Z" fill="#BA68C8"/>
<path opacity="0.3" d="M106.045 278.718L94.233 271.898L94.2312 259.008L106.047 265.827L106.045 278.718Z" fill="black"/>
<path d="M94.2321 259.007L103.092 253.893L114.906 260.712L106.048 265.827L94.2321 259.007Z" fill="#BA68C8"/>
<path opacity="0.15" d="M94.2321 259.007L103.092 253.893L114.906 260.712L106.048 265.827L94.2321 259.007Z" fill="black"/>
<path opacity="0.3" d="M94.2315 259.008L106.164 265.585L110.039 263.422L114.906 260.712L110.126 263.572L106.209 265.91C106.3 266.719 106.325 275.397 106.306 276.206C106.286 277.044 106.223 277.881 106.045 278.718C105.868 277.881 105.806 277.044 105.786 276.206C105.77 275.438 105.793 266.803 105.873 266.035L94.2315 259.008Z" fill="white"/>
<g opacity="0.3">
<path d="M39.5999 242.241C39.631 242.241 39.6628 242.233 39.6908 242.217L51.5029 235.397C51.559 235.365 51.5938 235.305 51.5938 235.24C51.5938 235.174 51.559 235.115 51.5029 235.082L36.7372 226.557C36.6805 226.525 36.6122 226.525 36.5554 226.557L24.7434 233.377C24.6873 233.41 24.6525 233.469 24.6525 233.535C24.6525 233.6 24.6873 233.66 24.7434 233.692L39.509 242.217C39.5371 242.233 39.5688 242.241 39.5999 242.241ZM51.0484 235.24L39.5999 241.85L25.1978 233.535L36.6463 226.925L51.0484 235.24Z" fill="#BA68C8"/>
</g>
<path d="M39.6007 240.356L39.6025 155.724L48.4609 150.609L48.4597 235.241L39.6007 240.356Z" fill="#BA68C8"/>
<path opacity="0.3" d="M39.6007 240.356L39.6025 155.724L48.4609 150.609L48.4597 235.241L39.6007 240.356Z" fill="white"/>
<path d="M39.5997 240.357L27.7877 233.537L27.7859 148.906L39.6016 155.725L39.5997 240.357Z" fill="#BA68C8"/>
<path opacity="0.55" d="M39.5997 240.357L27.7877 233.537L27.7859 148.906L39.6016 155.725L39.5997 240.357Z" fill="white"/>
<path d="M27.7868 148.906L36.6465 143.791L48.4609 150.61L39.6025 155.725L27.7868 148.906Z" fill="#BA68C8"/>
<path opacity="0.75" d="M27.7868 148.906L36.6465 143.791L48.4609 150.61L39.6025 155.725L27.7868 148.906Z" fill="white"/>
<path opacity="0.3" d="M39.4458 155.943L27.7868 148.906L39.7209 155.485C41.0073 154.756 42.3012 154.039 43.5937 153.321L48.4609 150.611L43.6804 153.471C42.3737 154.254 41.069 155.039 39.7556 155.81C39.7971 157.373 39.8404 176.975 39.8526 178.538C39.8666 180.128 39.8728 229.219 39.8612 230.81C39.8532 232.401 39.83 233.992 39.7837 235.583C39.7483 237.174 39.691 238.765 39.6007 240.356C39.5104 238.765 39.4537 237.174 39.4183 235.583C39.3719 233.992 39.3488 232.401 39.3414 230.81C39.3298 229.219 39.3366 180.128 39.3512 178.538C39.3634 177.019 39.4055 157.461 39.4458 155.943Z" fill="white"/>
<path opacity="0.5" d="M245.239 103.604L279.461 123.362L262.349 91.9277L245.239 103.604Z" fill="#BA68C8"/>
<path opacity="0.3" d="M245.239 117.973L279.461 137.731L262.349 106.297L245.239 117.973Z" fill="#BA68C8"/>
<path opacity="0.15" d="M245.239 132.342L279.461 152.1L262.349 120.666L245.239 132.342Z" fill="#BA68C8"/>
<path opacity="0.2" d="M167.435 173.28C164.71 170.93 161.096 168.726 156.696 166.731C151.752 164.489 145.807 162.501 141.678 160.062C136.313 156.893 134.268 153.072 134.659 149.228C134.881 147.051 136.178 144.637 141.127 143.032C142.394 142.622 143.938 142.271 145.601 142.19C148.043 142.072 150.16 142.55 151.864 143.065C160.957 145.817 164.817 150.045 167.867 154.153C170.918 158.261 174.622 160.642 181.281 164.514C184.13 166.17 187.187 167.792 189.878 169.47C189.9 169.483 189.921 169.497 189.943 169.511C191.302 170.363 192.8 171.153 193.87 172.067C195.578 173.526 197.081 175.03 197.696 176.622C198.311 178.214 198.004 179.908 196.188 181.494C195.721 181.902 195.113 182.32 194.075 182.598C193.196 182.833 192.095 182.941 191.033 182.977C188.867 183.05 186.775 182.845 185.006 182.498C183.238 182.152 181.764 181.67 180.403 181.162C174.468 178.948 170.69 176.085 167.435 173.28Z" fill="black"/>
<path d="M195.326 92.3221C195.825 93.6446 197.277 96.4537 197.186 96.8081C196.938 97.778 196.89 98.3697 197.104 99.5012C197.232 100.178 203.084 102.478 203.084 102.478L203.226 101.553C203.322 100.929 203.244 100.292 202.995 99.7117C202.317 98.1293 200.933 94.6694 200.502 91.875L195.326 92.3221Z" fill="#FFA8A7"/>
<path d="M197.011 98.9062L203.203 101.69L203.082 102.478C203.082 102.478 197.231 100.177 197.103 99.501C197.062 99.2832 197.034 99.0899 197.011 98.9062Z" fill="#F28F8F"/>
<path d="M215.786 110.809L217.647 129.926C217.738 130.853 217.134 131.453 216.379 132.002L214.481 133.36C213.957 133.736 213.658 133.874 212.941 133.822C212.628 133.802 212.085 133.6 211.825 133.486C211.808 133.484 211.794 133.476 211.781 133.469L211.666 133.417L189.963 123.554C188.377 122.833 187.297 121.322 187.128 119.588L185.433 102.181C185.394 101.785 185.627 101.272 185.951 101.04L189.192 98.726C189.515 98.4924 190.074 98.4375 190.436 98.6046L215.055 109.793C215.24 109.873 215.412 110.032 215.543 110.214C215.675 110.399 215.767 110.613 215.786 110.809Z" fill="#37474F"/>
<path d="M215.786 110.809L217.647 129.926C217.738 130.852 217.134 131.452 216.379 132.001L214.481 133.359C213.957 133.735 213.658 133.873 212.941 133.821C212.628 133.801 212.085 133.6 211.825 133.486L211.824 133.478C212.662 133.775 213.252 133.297 213.16 132.349L211.406 114.336C211.376 114.036 211.239 113.712 211.039 113.432L215.542 110.213C215.675 110.398 215.767 110.612 215.786 110.809Z" fill="#263238"/>
<path d="M211.409 114.336C211.351 113.737 210.854 113.043 210.306 112.794L187.037 102.219C186.118 101.801 185.445 102.282 185.543 103.287L187.128 119.585C187.297 121.319 188.378 122.831 189.964 123.552L211.668 133.416C212.588 133.834 213.26 133.354 213.162 132.348L211.409 114.336Z" fill="#455A64"/>
<path d="M186.436 102.983C186.452 103.007 186.442 103.083 186.453 103.199L188.038 119.497C188.175 120.901 189.058 122.136 190.343 122.72L212.047 132.584C212.153 132.632 212.225 132.648 212.266 132.652C212.255 132.628 212.264 132.551 212.253 132.437L210.499 114.425C210.469 114.115 210.212 113.755 209.928 113.626L186.659 103.052C186.548 103.001 186.474 102.987 186.436 102.983ZM186.414 102.068C186.602 102.068 186.812 102.117 187.037 102.22L210.306 112.794C210.854 113.043 211.351 113.737 211.409 114.336L213.162 132.348C213.237 133.108 212.871 133.568 212.292 133.568C212.104 133.568 211.893 133.519 211.668 133.416L189.963 123.552C188.378 122.831 187.296 121.319 187.127 119.585L185.543 103.287C185.47 102.528 185.835 102.068 186.414 102.068Z" fill="#37474F"/>
<path d="M188.141 99.4766L212.817 110.818C213.526 111.144 214.009 111.822 214.085 112.599L216 132.274L215.664 132.514L213.729 112.634C213.666 111.986 213.259 111.415 212.668 111.143L187.806 99.7157L188.141 99.4766Z" fill="#BA68C8"/>
<path opacity="0.2" d="M213.687 111.541C213.907 111.849 214.047 112.213 214.085 112.6L216 132.275L215.664 132.515L213.729 112.635C213.698 112.311 213.581 112.007 213.397 111.75L213.687 111.541Z" fill="black"/>
<path opacity="0.2" d="M213.397 111.749C213.214 111.491 212.964 111.279 212.668 111.143L187.806 99.7157L188.141 99.4766L212.817 110.818C213.17 110.981 213.469 111.232 213.688 111.54" fill="black"/>
<path d="M196.681 101.112L196.969 104.072L195.876 104.853L195.493 100.922C195.474 100.721 195.608 100.624 195.792 100.708L196.681 101.112Z" fill="#BA68C8"/>
<path opacity="0.4" d="M196.681 101.112L196.969 104.072L195.876 104.853L195.493 100.922C195.474 100.721 195.608 100.624 195.792 100.708L196.681 101.112Z" fill="black"/>
<path d="M205.096 103.244L205.562 108.036L204.519 108.783L203.734 108.425L203.351 104.494C203.331 104.292 203.164 104.059 202.979 103.975L197.024 101.27L195.787 100.707C195.603 100.624 195.468 100.72 195.488 100.922L195.871 104.852L195.083 104.494L194.617 99.7033C194.615 99.6832 194.614 99.6612 194.616 99.6405C194.622 99.4496 194.734 99.2281 194.883 99.1226L195.327 98.8036C195.491 98.6859 195.775 98.6578 195.961 98.742L204.726 102.725C204.912 102.81 205.076 103.042 205.096 103.244Z" fill="#BA68C8"/>
<path opacity="0.2" d="M204.05 103.991L204.516 108.783L203.73 108.425L203.347 104.494C203.327 104.292 203.16 104.059 202.975 103.975L197.021 101.27L195.783 100.707C195.599 100.624 195.464 100.72 195.484 100.922L195.867 104.852L195.079 104.494L194.613 99.7034C194.611 99.6833 194.61 99.6613 194.612 99.6406C194.624 99.482 194.75 99.4149 194.914 99.4893L203.679 103.472C203.863 103.557 204.03 103.789 204.05 103.991Z" fill="black"/>
<path d="M197.96 100.892C197.832 100.897 197.708 100.934 197.605 101.012C197.446 100.743 197.136 100.571 196.824 100.576C196.687 100.579 196.528 100.634 196.492 100.767C196.481 100.811 196.484 100.857 196.488 100.903C196.531 101.344 196.592 101.783 196.67 102.218C196.728 102.533 196.808 102.871 197.049 103.08C197.247 103.252 197.54 103.307 197.787 103.219C197.876 103.427 198.056 103.591 198.265 103.675C198.314 103.695 198.93 103.748 198.892 103.676C199.123 104.109 199.633 104.554 200.292 104.423C200.292 104.423 200.456 104.896 201.325 104.794C202.194 104.693 202.578 103.734 202.578 103.734C202.529 103.466 202.437 103.359 202.138 103.243C201.99 103.186 201.831 103.119 201.689 103.049C201.485 102.947 201.353 102.709 201.206 102.536C201.056 102.36 200.882 102.193 200.665 102.11C200.449 102.028 200.181 102.046 200.012 102.204C199.993 102.025 199.873 101.874 199.748 101.744C199.636 101.627 199.496 101.51 199.329 101.492C199.279 101.487 198.883 101.556 198.931 101.66C198.812 101.403 198.647 101.156 198.404 101.011C198.272 100.93 198.114 100.887 197.96 100.892Z" fill="#FFA8A7"/>
<path d="M194.45 91.8747C194.829 93.626 195.781 95.1992 195.357 96.6705C195.072 97.6648 194.994 97.563 195.109 98.5762C195.152 98.9519 195.306 99.5473 195.434 99.9029C195.511 100.115 195.585 100.326 195.662 100.538C195.742 100.76 195.824 100.984 195.941 101.189C196.091 101.455 196.297 101.685 196.492 101.915C196.835 102.321 197.192 102.725 197.632 103.023C197.656 103.039 197.681 103.053 197.708 103.061C197.818 103.097 197.942 103.047 198.019 102.963C198.402 102.542 198.113 101.931 197.912 101.506C197.688 101.033 197.425 100.554 197.436 100.015C197.437 99.9481 197.441 99.737 197.435 99.4033C197.438 99.4045 197.976 99.2691 197.976 99.2691C197.976 99.2691 199.725 98.8482 199.757 98.0015C199.788 97.1555 199.116 96.3399 198.612 95.3493C198.096 94.3348 197.897 93.7084 197.381 91.1445L194.45 91.8747Z" fill="#FFA8A7"/>
<path d="M195.943 101.189C196.341 101.838 196.851 102.416 197.422 102.92C197.518 102.993 197.6 103.119 197.774 103.133C198.59 102.979 198.206 101.902 197.931 101.427C197.707 100.977 197.452 100.527 197.438 100.014C197.403 100.529 197.635 101.016 197.843 101.469C198.057 101.91 198.44 102.812 197.779 103.012C197.084 102.599 196.46 101.832 195.943 101.189Z" fill="#F28F8F"/>
<path d="M197.579 99.2386C197.792 99.13 198.026 99.0501 198.227 98.9195C198.384 98.8177 198.515 98.678 198.62 98.5242C198.875 98.1515 199.102 97.6617 199.028 97.2018C199.023 97.1737 199.055 97.1225 199.072 97.1694C199.259 97.6873 199.115 98.2766 198.836 98.7365C198.706 98.9519 198.511 99.1245 198.298 99.2556C198.188 99.3233 198.069 99.3746 197.944 99.4063C197.801 99.4423 197.699 99.4453 197.566 99.3831C197.518 99.3606 197.539 99.2587 197.579 99.2386Z" fill="#F28F8F"/>
<path d="M184.055 56.7574C187.836 56.4664 190.854 57.2167 192.808 62.1888C195.015 67.8045 197.188 72.1361 198.281 76.2225C199.376 80.3083 200.992 93.2336 200.992 93.2336C200.992 93.2336 198.136 95.7212 194.993 94.5866L190.235 79.8959L184.055 68.0082V56.7574Z" fill="#E6E6E6"/>
<path d="M141.124 149.506C140.859 149.321 140.473 150.003 140.464 150.428C140.438 151.649 141.26 153.437 143.041 155.019C144.823 156.6 149.098 158.283 150.329 158.909C151.559 159.535 153.297 161.305 154.389 162.169C156.378 163.74 158.213 163.97 159.321 163.666C159.755 163.547 160.009 163.155 160.195 162.8C160.638 161.957 160.659 161.749 160.562 161.704L141.124 149.506Z" fill="#37474F"/>
<path d="M161.681 159.148C161.404 160.059 160.781 161.489 160.202 162.253C159.604 162.731 158.731 162.705 158.094 162.573C156.415 162.223 155.061 161.355 153.675 160.142C152.844 159.415 151.937 158.626 150.771 158.056C149.489 157.43 146.591 156.179 145.333 155.5C144.265 154.923 143.026 153.949 142.303 152.952C141.692 152.109 140.916 150.564 140.994 149.771C141.557 148.126 142.205 147.322 143.349 147.296C144.557 147.268 145.915 147.888 147.787 148.754C148.348 149.014 149.044 149.361 149.349 149.49C150.503 149.977 151.565 150.462 152.419 150.87C153.15 151.219 153.871 151.553 154.699 151.56C155.094 151.563 155.415 151.52 155.731 151.284C156.116 150.997 156.422 150.437 156.774 150.592C156.774 150.592 162.343 155.068 162.812 155.397C163.353 155.777 162.52 156.388 161.681 159.148Z" fill="#455A64"/>
<path d="M148.906 149.167C148.66 149.186 148.339 149.334 148.152 149.453C147.895 149.615 147.682 149.789 147.471 150.009C147.214 150.278 147.566 150.556 147.918 150.28C148.159 150.091 148.42 149.871 148.836 149.672C149.034 149.577 149.393 149.508 149.582 149.588C149.725 149.649 149.912 149.73 149.912 149.73C149.959 149.45 149.232 149.142 148.906 149.167Z" fill="#FAFAFA"/>
<path d="M151.86 150.392C151.654 150.245 151.442 150.204 151.183 150.246C150.878 150.295 150.616 150.457 150.385 150.652C150.198 150.811 149.763 151.242 149.62 151.443C149.485 151.632 149.964 151.891 150.137 151.699C150.309 151.511 150.637 151.167 150.852 150.988C150.984 150.879 151.525 150.486 151.882 150.616L152.035 150.69C152.075 150.62 152.008 150.52 151.952 150.467C151.923 150.44 151.892 150.415 151.86 150.392Z" fill="#FAFAFA"/>
<path d="M153.51 151.253C153.321 151.22 153.211 151.184 153.033 151.26C152.865 151.333 152.638 151.475 152.507 151.606C152.144 151.967 152.023 152.158 151.808 152.52C151.657 152.776 152.168 152.971 152.28 152.807C152.637 152.287 152.837 151.929 153.32 151.674C153.718 151.464 153.967 151.473 153.967 151.473C153.98 151.42 153.913 151.375 153.863 151.357C153.786 151.329 153.592 151.267 153.51 151.253Z" fill="#FAFAFA"/>
<path d="M166.641 148.99C166.641 148.99 163.514 154.521 162.651 155.753C162.375 156.147 161.492 155.874 160.987 155.824C160.481 155.774 159.683 155.696 159.139 155.849C157.533 156.299 156.62 156.105 157 153.959C157.078 153.52 156.93 153.227 156.409 153.051C156.02 152.919 155.573 152.875 155.258 152.606C155.223 152.54 155.303 152.474 155.37 152.44C155.886 152.189 156.178 152.009 156.538 151.229C157.65 148.815 158.669 143.844 158.669 143.844L166.641 148.99Z" fill="#FFA8A7"/>
<path d="M190.328 161.359C189.37 159.827 188.853 156.879 186.745 150.887L178.93 156.609L183.406 165.336C183.661 165.774 183.67 166.432 183.759 166.56C184.803 168.061 190.328 161.359 190.328 161.359Z" fill="#FFA8A7"/>
<path d="M193.223 164.626C193.212 164.537 193.259 163.815 193.236 163.728C193.033 162.951 192.552 162.736 191.935 162.302C191.171 161.763 190.429 161.118 190.233 160.846C190.026 160.559 189.986 160.411 189.666 160.281C189.119 160.059 188.241 160.041 187.159 160.609C185.386 161.54 184.845 162.662 184.947 163.877C185.025 164.804 185.102 166.036 184.285 166.587C183.946 166.817 183.408 165.336 183.408 165.336C182.904 166.18 183.612 167.349 183.981 169.059C184.234 170.232 184.173 170.743 184.03 171.935C183.851 173.437 183.644 173.43 182.846 173.535C182.16 173.625 180.212 173.494 179.027 174.322C177.394 175.462 177.83 176.979 177.83 176.979C178.041 177.556 179.818 180.357 186.306 179.311C188.188 179.008 192.141 176.049 192.081 175.773C192.025 175.516 192.087 175.182 192.096 174.923C192.118 174.259 192.147 173.596 192.176 172.933C192.202 172.329 192.14 171.625 192.286 171.038C192.416 170.515 192.477 170.014 192.528 169.471C192.652 168.139 192.776 166.807 192.9 165.475C192.936 165.092 193.275 165.004 193.223 164.626Z" fill="#455A64"/>
<path d="M194.042 164.363C194.681 164.982 194.292 166.779 193.434 168.935C193.053 169.892 192.345 171.538 192.553 173.288C192.761 175.038 192.797 175.865 192.346 176.686C191.641 177.969 187.868 179.611 185.645 180.126C185.645 180.126 187.682 177.569 187.906 173.705C188.129 169.842 188.424 167.352 190.191 165.639C192.424 163.472 194.042 164.363 194.042 164.363Z" fill="#263238"/>
<path d="M177.837 176.979C177.837 176.979 179.138 179.417 184.158 179.337C186.133 179.306 187.191 178.343 187.24 175.34C187.298 171.72 187.59 168.064 188.761 166.267C189.931 164.47 191.796 163.599 193.242 163.727C193.494 163.767 193.811 164.007 194.047 164.362C194.047 164.362 192.599 163.886 190.347 165.755C188.684 167.135 188.235 170.017 188.26 173.596C188.271 175.137 188.364 176.884 187.913 178.052C187.497 179.129 186.576 179.867 185.517 180.164C182.787 180.931 179.053 179.668 178.108 178.514C177.566 177.745 177.837 176.979 177.837 176.979Z" fill="#37474F"/>
<path d="M183.859 172.879C183.859 172.879 183.493 173.138 183.453 173.478C183.413 173.818 183.531 174.605 184.244 175.05C184.546 175.238 184.81 175.173 184.329 174.538C183.849 173.904 183.859 172.879 183.859 172.879Z" fill="#FAFAFA"/>
<path d="M184.13 171.006C184.13 171.006 183.97 171.108 183.93 171.612C183.909 171.881 184.329 172.968 184.857 173.227C185.385 173.486 185.1 172.877 184.87 172.578C184.619 172.25 184.176 171.504 184.13 171.006Z" fill="#FAFAFA"/>
<path d="M183.949 168.936C183.949 168.936 183.777 168.983 183.96 169.675C184.023 169.909 184.714 170.595 185.055 170.636C185.395 170.676 185.56 170.506 185.143 170.203C184.813 169.965 184.013 169.271 183.949 168.936Z" fill="#FAFAFA"/>
<path d="M171.142 91.5729C171.142 91.5729 168.105 95.2122 166.269 102.019C164.04 110.282 163.178 116.638 162.481 121.25C162.042 124.148 161.623 126.943 160.614 132.514C159.656 137.809 157.275 149.264 157.275 149.264C157.275 149.264 157.694 151.01 160.049 152.041C162.405 153.072 164.954 152.677 164.954 152.677C164.954 152.677 166.57 149.918 169.938 143.418C172.223 139.008 172.599 136.607 173.041 134.35C173.372 132.65 173.765 129.332 173.733 127.806L186.374 106.326C186.374 106.326 187.729 104.915 188.91 101.95C190.697 97.4643 188.416 91.002 188.416 91.002L171.142 91.5729Z" fill="#37474F"/>
<path d="M171.142 91.5729C171.142 91.5729 168.105 95.2122 166.269 102.019C164.04 110.282 163.178 116.638 162.481 121.25C162.042 124.148 161.623 126.943 160.614 132.514C159.656 137.809 157.275 149.264 157.275 149.264C157.275 149.264 157.694 151.01 160.049 152.041C162.405 153.072 164.954 152.677 164.954 152.677C164.954 152.677 166.57 149.918 169.938 143.418C172.223 139.008 172.599 136.607 173.041 134.35C173.372 132.65 173.765 129.332 173.733 127.806L186.374 106.326C186.374 106.326 187.729 104.915 188.91 101.95C190.697 97.4643 188.416 91.002 188.416 91.002L171.142 91.5729Z" fill="#37474F"/>
<path d="M162.723 119.595C163.388 115.155 164.29 109.337 166.264 102.019C166.833 99.9072 167.518 98.1016 168.192 96.6139L184.227 96.332C185.42 99.1203 186.364 102.604 183.753 106.859L183.065 111.936L173.727 127.804C173.759 129.331 173.366 132.65 173.035 134.348C172.593 136.605 172.216 139.007 169.931 143.417C169.831 143.61 169.737 143.79 169.64 143.977C168.627 142.465 167.045 140.014 166.44 138.582C165.521 136.407 164.892 132.214 163.928 126.903C163.574 124.947 163.115 122.111 162.723 119.595Z" fill="#263238"/>
<path d="M181.681 91.5722C182.474 92.3847 184.449 95.1077 184.771 99.2984C184.907 101.073 184.402 104.418 182.329 106.935C181.695 116.231 179.858 134.135 179.858 134.135C182.314 136.664 182.95 138.296 184.372 142.829C185.236 145.582 187.754 153.902 188.727 157.006C182.767 157.264 181.645 162.371 181.645 162.371C181.645 162.371 174.422 150.727 170.777 144.149C168.082 139.286 167.737 138.128 167.005 135.232C166.274 132.335 166.136 129.65 165.251 123.601C164.365 117.552 162.794 109.22 162.361 103.265C161.927 97.3111 161.846 91 161.846 91L181.681 91.5722Z" fill="#37474F"/>
<path d="M189.562 98.8576C188.96 98.6849 188.102 98.1085 187.778 97.5906C187.583 97.2789 187.465 96.836 187.316 96.2748C187.154 95.6624 186.951 94.8993 186.566 94.041L186.107 94.2466C186.475 95.0689 186.663 95.7783 186.83 96.4048C186.99 97.0068 187.116 97.482 187.351 97.8578C187.736 98.4745 188.733 99.1723 189.519 99.3602C189.536 99.1919 189.552 99.0247 189.562 98.8576Z" fill="#263238"/>
<path d="M177.625 104.184C177.753 104.181 177.862 104.17 177.947 104.151C178.676 103.99 179.244 103.5 180.373 102.055C181.234 100.954 181.146 100.164 181 98.8547C180.947 98.374 180.44 95.8041 180.409 95.127L179.926 95.3953C179.959 96.0883 180.446 98.4222 180.5 98.9102C180.645 100.212 180.71 100.806 179.977 101.745C178.932 103.081 178.433 103.528 177.839 103.66C177.263 103.79 174.711 103.367 174.031 102.897C173.639 102.623 172.981 99.2646 172.596 96.3085L172.097 96.3738C172.291 97.8677 172.984 102.785 173.744 103.311C174.42 103.777 176.611 104.21 177.625 104.184Z" fill="#263238"/>
<path d="M188.547 59.456C190.25 62.7115 190.039 65.6273 189.548 70.1944C189.095 74.4064 188.777 77.0154 188.389 82.2254C187.946 88.1778 188.739 91.9318 188.739 91.9318C188.739 91.9318 188.57 94.4541 181.149 96.3439C168.107 99.6659 161.848 95.8809 161.848 95.8809C161.848 95.8809 161.533 88.5353 162.039 78.9278C162.606 68.1643 162.794 66.5893 163.626 64.0291C164.237 62.6145 165.395 61.3427 166.962 60.6308C168.257 60.0428 171.357 59.0283 173.198 58.3183C177.481 56.6658 182.431 56.7683 182.431 56.7683C186.144 56.5182 187.663 57.7657 188.547 59.456Z" fill="#F5F5F5"/>
<path d="M183.341 57.3463C183.065 57.3463 182.772 57.3567 182.471 57.3768L182.444 57.3787L182.417 57.378C182.414 57.378 182.357 57.3768 182.255 57.3768C181.433 57.3768 177.141 57.4494 173.417 58.8872C172.672 59.1745 171.711 59.5155 170.781 59.8455C169.397 60.3365 167.966 60.8447 167.214 61.1863C165.882 61.7908 164.783 62.9046 164.196 64.2454C163.412 66.6653 163.224 68.0097 162.648 78.9598C162.211 87.2565 162.391 93.9329 162.445 95.5049C163.313 95.9246 166.185 97.0994 171.094 97.0994C174.158 97.0994 177.491 96.6462 180.998 95.7531C187.14 94.1891 188.013 92.2463 188.118 91.9345C187.983 91.2251 187.375 87.6255 187.781 82.18C188.109 77.7697 188.387 75.2205 188.739 71.993L188.942 70.1295C189.432 65.5722 189.63 62.8424 188.007 59.7394C187.388 58.5553 186.349 57.3463 183.341 57.3463ZM183.341 56.7363C186.401 56.7363 187.739 57.9112 188.547 59.4557C190.25 62.7113 190.039 65.6271 189.548 70.1941C189.095 74.4062 188.777 77.0152 188.389 82.2252C187.946 88.1776 188.739 91.9315 188.739 91.9315C188.739 91.9315 188.571 94.4538 181.15 96.3436C177.172 97.3562 173.825 97.7088 171.094 97.7088C164.871 97.7088 161.849 95.8806 161.849 95.8806C161.849 95.8806 161.534 88.535 162.04 78.9275C162.606 68.1641 162.794 66.589 163.626 64.0289C164.238 62.6149 165.395 61.3424 166.963 60.6306C168.258 60.0425 171.358 59.0281 173.198 58.3181C177.006 56.8486 181.341 56.7668 182.256 56.7668C182.37 56.7668 182.431 56.768 182.431 56.768C182.749 56.7467 183.053 56.7363 183.341 56.7363Z" fill="#E0E0E0"/>
<path d="M172.885 54.6295L173.236 58.589C175.403 59.0611 180.668 58.7226 181.656 57.3763L181.449 53.748L172.885 54.6295Z" fill="#FFA8A7"/>
<path d="M167.234 44.4805C167.234 44.4805 166.228 45.2411 165.465 47.8696L166.956 48.9627C167.446 47.1163 167.975 45.2356 167.234 44.4805Z" fill="#F28F8F"/>
<path d="M171.076 37.122C167.377 37.3678 166.759 39.2954 167.308 45.604C166.01 51.5936 167.803 53.9629 168.575 54.7473C170.319 55.6812 172.091 55.8356 174.499 55.2079C176.335 54.7296 180.985 53.3504 182.932 50.4651C185.224 47.0705 185.823 41.9087 183.382 39.9878C179.948 37.2836 172.55 37.0244 171.076 37.122Z" fill="#FFA8A7"/>
<path d="M168.573 54.7479C169 55.1816 171.475 55.9654 173 55.7983L172.874 54.6289C172.874 54.6289 170.756 55.0248 168.573 54.7479Z" fill="#F28F8F"/>
<path d="M170.691 41.4805C170.77 41.7514 170.888 42.0112 171.039 42.2491C171.455 42.9037 172.049 43.2557 172.683 43.6528C172.452 44.4244 172.204 45.2229 172.193 46.0415C172.19 46.3032 172.211 46.5801 172.359 46.7991C172.62 47.1859 173.059 47.1481 173.261 46.7894C173.504 46.3587 173.674 45.9104 174.014 45.5364C174.407 45.1039 174.944 44.7764 175.534 44.7184C177.765 44.5013 177.773 47.9752 176.879 49.1513C175.415 51.0765 174.212 49.8412 174.212 49.8412C174.212 49.8412 173.46 52.8101 175.611 54.0966C175.611 54.0966 179.078 54.9463 181.443 53.7483C182.526 51.5199 183.986 50.2194 185.149 47.8465C187.183 43.6955 186.209 40.0495 184.823 39.2998C185.212 37.3612 184.033 35.4562 181.526 34.2734C179.054 33.1071 175.638 33.7018 173.009 34.1227C171.448 34.3728 169.832 34.2813 168.309 33.8568C168.093 33.7964 167.874 33.7293 167.65 33.7299C167.427 33.7311 167.189 33.8122 167.06 33.9952C166.891 34.2337 166.95 34.5674 167.08 34.8291C167.209 35.0908 167.4 35.3226 167.496 35.5989C166.954 35.4513 166.388 35.8545 166.144 36.3602C165.802 37.0684 165.944 37.9511 166.393 38.5971C166.841 39.2431 167.557 39.6688 168.311 39.8927C169.064 40.116 169.861 40.1532 170.647 40.1477C170.541 40.5857 170.566 41.0468 170.691 41.4805Z" fill="#263238"/>
<path d="M173.077 56.9003C172.512 56.8729 171.897 58.0404 170.788 59.1958C170.788 59.1958 173.915 61.0099 178.58 60.3072C183.245 59.6045 184.141 56.7655 184.141 56.7655C184.141 56.7655 183.074 55.9469 182.513 55.3949C181.829 54.7239 181.495 54.7129 181.495 54.7129L181.55 55.6682C181.55 55.6682 180.655 56.5947 177.812 57.17C174.968 57.7446 173.077 56.9003 173.077 56.9003Z" fill="#E6E6E6"/>
<path d="M156.566 84.37C156.566 84.37 157.899 77.6825 158.872 72.9935C159.844 68.305 159.468 62.8888 166.848 61.0332C168.069 62.8955 168.865 65.7485 168.453 69.3066C168.041 72.8648 166.418 78.445 166.01 80.3312C165.601 82.2173 164.219 85.9737 162.46 88.5875C160.12 92.0633 155.758 97.9437 153.991 100.105C153.174 101.105 152.465 102.118 151.713 103.182C150.928 104.291 149.887 105.153 148.957 106.145C148.529 106.603 147.912 106.931 147.31 107.099C146.913 107.21 146.52 107.058 146.144 107.161C145.755 107.268 145.519 107.627 145.059 107.64C144.548 107.654 144.133 107.302 143.671 107.346C143.188 107.393 142.717 107.568 142.211 107.555C141.754 107.543 141.443 107.478 141.007 107.66C140.649 107.81 140.149 108.284 139.741 108.042C139.285 107.771 139.424 107.272 139.586 106.861C139.871 106.134 140.671 105.421 141.353 105.06C142.142 104.641 142.824 104.046 143.661 103.72C144.418 103.426 145.08 102.778 145.626 102.172C146.007 101.748 146.257 101.093 145.483 101.084C144.572 101.074 143.442 101.419 142.612 100.844C142.038 100.445 142.233 99.9378 142.789 99.6968C143.72 99.293 144.566 98.8434 145.435 98.3048C146.299 97.7686 147.097 97.1446 147.974 96.6346C148.43 96.3693 148.931 96.1479 149.422 95.9441C150.796 95.3732 151.394 93.9982 152.087 92.7843C153.053 91.0916 155.484 86.6203 156.566 84.37Z" fill="#FFA8A7"/>
<path d="M167.204 77.2218C167.204 77.2218 168.498 72.1357 168.83 70.0104C169.162 67.8852 169.351 62.3574 167.149 60.5469C165.56 60.9336 161.31 61.69 160.085 65.688C158.861 69.6859 157.013 80.2157 157.013 80.2157L151.479 93.2862C151.479 93.2862 151.457 94.5037 153.776 96.0745C156.094 97.6459 157.277 97.1103 157.277 97.1103C157.277 97.1103 161.847 90.1935 164.064 86.7842C165.552 84.4943 165.919 82.9766 167.204 77.2218Z" fill="#E6E6E6"/>
<path d="M209.016 55.3687L209.006 47.507L202.394 46.8104C202.25 46.7952 202.121 46.8269 202.014 46.8897C201.694 47.0776 198.654 48.8375 198.548 48.8985C198.225 49.0845 198.106 49.5542 198.407 49.8708L205.545 57.3805L209.016 55.3687Z" fill="#BA68C8"/>
<path d="M229.757 73.1054L229.758 48.7786C229.758 48.4254 229.51 47.9954 229.204 47.8191L209.366 36.3889C209.06 36.212 208.565 36.2144 208.261 36.3944L205.177 38.2165C204.872 38.3964 204.626 38.8283 204.626 39.1815L204.625 63.5083C204.625 63.8615 204.873 64.2915 205.179 64.4678L225.017 75.898C225.323 76.0749 225.818 76.0725 226.122 75.8925L229.206 74.0704C229.51 73.8911 229.757 73.4586 229.757 73.1054Z" fill="#BA68C8"/>
<path opacity="0.15" d="M225.107 75.9417C225.371 76.0436 225.571 75.8959 225.572 75.5775L225.571 51.2519C225.57 51.0744 225.509 50.8792 225.407 50.7054L229.607 48.252C229.701 48.4215 229.759 48.6082 229.758 48.7796V73.107C229.758 73.459 229.513 73.8903 229.207 74.0714L226.123 75.8929C225.845 76.0545 225.412 76.0734 225.107 75.9417Z" fill="black"/>
<path d="M198.922 48.8224L204.624 49.4232L204.625 39.1825C204.625 38.8294 204.873 38.686 205.179 38.8629L225.016 50.2925C225.322 50.4694 225.57 50.8988 225.57 51.252L225.57 75.5788C225.57 75.932 225.322 76.0753 225.016 75.8984L205.178 64.4683C204.872 64.2914 204.624 63.8619 204.624 63.5087L204.624 56.412L198.406 49.8704C198.007 49.4513 198.347 48.7614 198.922 48.8224Z" fill="#BA68C8"/>
<path opacity="0.35" d="M198.922 48.8224L204.624 49.4232L204.625 39.1825C204.625 38.8294 204.873 38.686 205.179 38.8629L225.016 50.2925C225.322 50.4694 225.57 50.8988 225.57 51.252L225.57 75.5788C225.57 75.932 225.322 76.0753 225.016 75.8984L205.178 64.4683C204.872 64.2914 204.624 63.8619 204.624 63.5087L204.624 56.412L198.406 49.8704C198.007 49.4513 198.347 48.7614 198.922 48.8224Z" fill="white"/>
<path d="M209.323 59.8149C209.28 59.7021 209.28 59.5868 209.328 59.5325L210.177 58.5913C210.369 58.3765 210.407 57.966 210.281 57.4908C210.276 57.4817 210.275 57.4743 210.275 57.4676C210.275 57.4676 210.275 57.4676 210.272 57.4634C210.15 56.9998 209.887 56.5715 209.583 56.3495L208.225 55.3619C208.145 55.3052 208.082 55.1905 208.067 55.0764C207.995 54.5043 207.959 53.9138 207.957 53.3312C207.955 52.7719 207.99 52.2253 208.062 51.6995C208.076 51.6067 208.137 51.5616 208.217 51.5952L209.574 52.1692C209.876 52.2924 210.139 52.1753 210.26 51.8562C210.263 51.844 210.265 51.8349 210.269 51.8227C210.393 51.4988 210.353 51.0358 210.16 50.6063L209.309 48.6903C209.262 48.5824 209.259 48.4628 209.304 48.4036C209.79 47.7534 210.388 47.2928 211.088 47.047C211.151 47.0226 211.235 47.0745 211.299 47.1727L212.37 48.9197C212.608 49.307 212.943 49.5553 213.244 49.5657C213.249 49.5675 213.253 49.5626 213.258 49.5651C213.558 49.5687 213.762 49.3321 213.795 48.9502L213.948 47.2269C213.956 47.1257 214.017 47.0799 214.094 47.1019C214.899 47.3709 215.815 47.8992 216.624 48.5555C216.699 48.6177 216.76 48.7343 216.769 48.8465L216.929 50.7509C216.96 51.17 217.17 51.6433 217.466 51.9807C217.472 51.9898 217.476 51.9917 217.483 52.0008C217.784 52.3333 218.119 52.473 218.355 52.3552L219.421 51.8398C219.484 51.8081 219.57 51.8581 219.636 51.9532C220.334 53.003 220.936 54.1517 221.426 55.365C221.471 55.4754 221.469 55.5931 221.421 55.6474L220.574 56.5862C220.384 56.7911 220.348 57.2157 220.472 57.6842C220.473 57.6982 220.476 57.7098 220.48 57.7214C220.608 58.1941 220.862 58.6016 221.166 58.8237L222.532 59.818C222.607 59.8729 222.672 59.9918 222.684 60.1016C222.757 60.6805 222.796 61.2685 222.797 61.8511C222.797 62.4269 222.762 62.9741 222.691 63.4688C222.677 63.5682 222.613 63.6091 222.535 63.5731L221.174 63.004C220.874 62.8783 220.611 63.0022 220.484 63.3285C220.485 63.3358 220.481 63.3407 220.481 63.3474C220.355 63.6805 220.394 64.1368 220.587 64.5662L221.437 66.4846C221.487 66.5975 221.49 66.7097 221.447 66.7732C220.96 67.4259 220.359 67.8822 219.661 68.1323C219.597 68.1567 219.511 68.0999 219.449 67.9999L218.378 66.2522C218.14 65.8649 217.805 65.6166 217.505 65.613C217.5 65.6111 217.493 65.6111 217.488 65.6093C217.191 65.6038 216.988 65.8374 216.954 66.2223L216.801 67.9456C216.793 68.0469 216.735 68.0969 216.655 68.0707C216.252 67.9365 215.828 67.7419 215.391 67.4918C214.957 67.2392 214.531 66.9464 214.124 66.617C214.049 66.5548 213.991 66.4359 213.979 66.3261L213.819 64.4216C213.786 63.9977 213.582 63.5335 213.285 63.1968C213.277 63.19 213.269 63.1833 213.267 63.1791C212.965 62.8399 212.635 62.7014 212.394 62.8173L211.328 63.3401C211.268 63.3694 211.179 63.3218 211.115 63.2242C210.414 62.1701 209.815 61.0258 209.323 59.8149ZM215.38 62.5898C217.45 63.7763 219.127 62.4989 219.121 59.7417C219.117 56.9821 217.433 53.7674 215.365 52.5785C213.299 51.3939 211.623 52.6779 211.627 55.4376C211.631 58.1972 213.317 61.4034 215.38 62.5898Z" fill="white"/>
</svg>
